<svg xmlns="http://www.w3.org/2000/svg" xmlns:xlink="http://www.w3.org/1999/xlink" width="3840" height="1138" viewBox="0 0 3840 1138">
  <defs>
    <style>
      .cls-1, .cls-2, .cls-3 {
        fill: #fff;
        fill-rule: evenodd;
      }

      .cls-1 {
        filter: url(#filter);
      }

      .cls-2 {
        filter: url(#filter-2);
      }

      .cls-3 {
        filter: url(#filter-3);
      }
    </style>
    <filter id="filter" x="15.688" y="20.5" width="964.407" height="1087.09" filterUnits="userSpaceOnUse">
      <feFlood result="flood" flood-color="#fefb00"/>
      <feComposite result="composite" operator="in" in2="SourceGraphic"/>
      <feBlend result="blend" in2="SourceGraphic"/>
    </filter>
    <filter id="filter-2" x="1052.59" y="16.125" width="1096.66" height="292.656" filterUnits="userSpaceOnUse">
      <feFlood result="flood" flood-color="#fefb00"/>
      <feComposite result="composite" operator="in" in2="SourceGraphic"/>
      <feBlend result="blend" in2="SourceGraphic"/>
    </filter>
    <filter id="filter-3" x="1050.59" y="434.281" width="2773.72" height="685.879" filterUnits="userSpaceOnUse">
      <feFlood result="flood" flood-color="#fefb00"/>
      <feComposite result="composite" operator="in" in2="SourceGraphic"/>
      <feBlend result="blend" in2="SourceGraphic"/>
    </filter>
  </defs>
  <path id="_" data-name="#" class="cls-1" d="M813.925,425.84L768.889,697.614h155.3V857.572H740.935L697.451,1107.6H531.281l43.483-250.028H320.073L278.143,1107.6H111.972l43.484-250.028H15.687V697.614H183.41L228.447,425.84H73.148V265.882H256.4L298.332,20.509H464.5L422.571,265.882H677.262L717.64,20.509H883.81L841.879,265.882H980.1V425.84H813.925Zm-419.308,0-46.59,271.774H602.718l46.59-271.774H394.617Z"/>
  <path id="SAVE" class="cls-2" d="M1185.17,308.775c68.72,0,114.4-34.36,114.4-92.165V215.8c0-52.954-40.43-73.974-105.51-88.122-39.21-8.894-48.91-14.553-48.91-27.488V99.383c0-10.106,9.3-18.19,28.3-18.19,25.06,0,53.36,9.7,79.23,27.892l39.21-55.38c-30.73-24.658-68.32-37.594-116.42-37.594-67.91,0-109.55,38-109.55,90.548v0.808c0,58.209,46.49,75.187,106.72,88.931,38.4,8.893,47.7,15.361,47.7,27.083v0.809c0,12.127-11.32,19.4-32.34,19.4-32.74,0-63.87-11.723-91.76-33.955l-43.66,52.145C1087.35,293.01,1135.04,308.775,1185.17,308.775Zm123.69-4.851h82.47l20.21-50.529h109.14l20.62,50.529h84.08L1504.91,18.941h-75.59Zm125.72-111.567,31.93-80.442,31.53,80.442h-63.46Zm270.03,113.589h72.76l114.8-284.984h-86.1L1741.8,200.037,1677.53,20.963h-87.72Zm215.05-2.022h229.6v-66.7H1997.27V192.357h135.82V130.509H1997.27V87.661h149.97v-66.7H1919.66V303.924Z"/>
  <path id="POCO" class="cls-3" d="M1050.59,1106.98h182.78V918.546h90.44c163.94,0,283.59-81.968,283.59-237.424v-1.884c0-146.034-107.4-231.771-274.17-231.771H1050.59V1106.98Zm182.78-331.642v-174.3h85.73c65.95,0,105.52,30.149,105.52,86.679V689.6c0,51.819-39.57,85.736-104.58,85.736h-86.67Zm782.92,344.832c203.51,0,356.14-153.574,356.14-342.947v-1.885c0-189.374-150.75-341.061-354.25-341.061s-356.14,153.572-356.14,342.946v1.884C1662.04,968.481,1812.78,1120.17,2016.29,1120.17Zm1.89-164.88c-99.87,0-168.65-82.91-168.65-178.067v-1.885c0-95.158,66.89-176.183,166.76-176.183,100.81,0,169.59,82.91,169.59,178.068v1.884C2185.88,874.265,2118.99,955.29,2018.18,955.29Zm766.91,164.88c146.03,0,229.89-63.13,292.07-148.863L2939.6,873.323c-39.57,48.05-80.08,80.083-148.86,80.083-92.33,0-157.34-77.257-157.34-176.183v-1.885c0-96.1,65.01-174.3,157.34-174.3,63.13,0,106.47,30.149,144.15,77.257l137.56-106.464c-58.42-81.025-145.1-137.555-279.82-137.555-199.74,0-347.66,150.745-347.66,342.946v1.884C2444.97,976.018,2596.66,1120.17,2785.09,1120.17Zm683.07,0c203.51,0,356.14-153.574,356.14-342.947v-1.885c0-189.374-150.75-341.061-354.25-341.061s-356.14,153.572-356.14,342.946v1.884C3113.91,968.481,3264.66,1120.17,3468.16,1120.17Zm1.89-164.88c-99.87,0-168.65-82.91-168.65-178.067v-1.885c0-95.158,66.89-176.183,166.76-176.183,100.81,0,169.59,82.91,169.59,178.068v1.884C3637.75,874.265,3570.86,955.29,3470.05,955.29Z"/>
</svg>
