<?xml version="1.0" encoding="UTF-8"?>
<!DOCTYPE svg PUBLIC "-//W3C//DTD SVG 1.1//EN" "http://www.w3.org/Graphics/SVG/1.1/DTD/svg11.dtd">
<!-- Creator: CorelDRAW 2020 (64-Bit) -->
<svg xmlns="http://www.w3.org/2000/svg" xml:space="preserve" width="184mm" height="66.5mm" version="1.1" style="shape-rendering:geometricPrecision; text-rendering:geometricPrecision; image-rendering:optimizeQuality; fill-rule:evenodd; clip-rule:evenodd"
viewBox="0 0 18400 6650"
 xmlns:xlink="http://www.w3.org/1999/xlink"
 xmlns:xodm="http://www.corel.com/coreldraw/odm/2003">
 <defs>
  <style type="text/css">
   <![CDATA[
    .str0 {stroke:#1F1B20;stroke-width:150;stroke-miterlimit:22.9256}
    .fil1 {fill:none;fill-rule:nonzero}
    .fil0 {fill:#1F1B20;fill-rule:nonzero}
   ]]>
  </style>
 </defs>
 <g id="Layer_x0020_1">
  <metadata id="CorelCorpID_0Corel-Layer"/>
  <g id="_2341609067728">
   <path class="fil0" d="M2013.24 225.89c58.46,0 102.31,1.91 131.54,5.72 29.23,3.81 62.27,15.89 99.13,36.22 36.86,20.34 62.91,54.65 78.16,102.95 15.25,48.29 22.88,113.11 22.88,194.45 0,81.33 -7.63,146.15 -22.88,194.45 -15.25,48.29 -41.94,81.97 -80.07,101.03 -38.12,19.07 -71.8,30.5 -101.03,34.32 -29.24,3.81 -74.35,5.72 -135.36,5.72l-1166.7 0 0 385.08 751.11 0c61.01,0 106.13,1.91 135.36,5.72 29.23,3.82 62.27,15.89 99.13,36.22 36.85,20.34 62.91,55.29 78.16,104.85 15.25,49.57 22.88,115.02 22.88,196.36 0,66.09 -6.36,120.74 -19.07,163.95 -12.71,43.21 -27.96,76.25 -45.75,99.13 -17.79,22.88 -43.85,40.03 -78.16,51.47 -34.32,11.44 -63.55,17.79 -87.7,19.06 -24.14,1.28 -60.36,1.91 -108.66,1.91l-747.3 0 0 720.61c0,61 -1.9,105.48 -5.71,133.44 -3.82,27.96 -15.89,61.01 -36.23,99.14 -20.33,38.12 -54.64,64.81 -102.94,80.06 -48.29,15.25 -113.11,22.88 -194.45,22.88 -66.09,0 -120.74,-6.35 -163.95,-19.06 -43.21,-12.71 -76.25,-27.96 -99.13,-45.76 -22.87,-17.79 -40.03,-43.84 -51.47,-78.16 -11.44,-34.31 -17.79,-63.54 -19.06,-87.69 -1.27,-24.15 -1.91,-60.37 -1.91,-108.66l0 -2119.89c0,-129.63 24.15,-217.96 72.44,-264.98 48.3,-47.03 139.8,-70.54 274.52,-70.54l1502.22 0z"/>
   <path id="1" class="fil0" d="M4731.73 2547.85c38.12,91.51 57.19,157.59 57.19,198.26 0,96.59 -78.8,177.93 -236.39,244.02 -81.34,35.58 -149.97,53.38 -205.89,53.38 -43.21,0 -80.7,-12.08 -112.48,-36.22 -31.77,-24.15 -54.65,-48.93 -68.63,-74.35 -13.98,-25.42 -32.4,-64.82 -55.28,-118.2 -55.92,-127.09 -137.26,-317.73 -244.02,-571.91l-118.19 7.63 -480.41 0 0 430.84c0,58.46 -1.9,102.3 -5.71,131.54 -3.82,29.23 -15.89,62.91 -36.23,101.03 -20.33,38.13 -54.64,64.82 -102.94,80.07 -48.29,15.25 -113.11,22.88 -194.45,22.88 -66.09,0 -120.74,-6.36 -163.95,-19.07 -43.21,-12.71 -76.25,-27.96 -99.13,-45.75 -22.87,-17.79 -40.03,-43.85 -51.47,-78.16 -11.44,-34.32 -17.79,-63.55 -19.06,-87.69 -1.27,-24.15 -1.91,-60.37 -1.91,-108.67l0 -2116.07c0,-58.46 1.91,-102.31 5.72,-131.54 3.81,-29.23 15.89,-62.91 36.22,-101.03 20.33,-38.13 54.65,-64.82 102.94,-80.07 48.3,-15.25 113.12,-22.88 194.45,-22.88l823.56 0c106.75,0 216.69,20.97 329.8,62.91 113.11,41.94 220.5,102.31 322.17,181.11 101.68,78.79 185.56,185.55 251.64,320.27 66.09,134.71 99.14,284.68 99.14,449.9 0,287.23 -95.32,523.62 -285.96,709.17 55.92,134.72 142.34,334.25 259.27,598.6zm-1464.1 -972.25l488.04 0c73.71,0 147.42,-27.96 221.13,-83.88 73.72,-55.92 110.57,-141.07 110.57,-255.45 0,-109.3 -36.85,-192.55 -110.57,-249.74 -73.71,-57.19 -149.96,-85.78 -228.76,-85.78l-480.41 0 0 674.85z"/>
   <path id="2" class="fil0" d="M5673.47 2345.78l1174.33 0c58.46,0 102.31,1.9 131.54,5.71 29.23,3.82 62.91,15.89 101.04,36.23 38.12,20.33 64.81,54.64 80.06,102.94 15.25,48.29 22.88,113.11 22.88,194.45 0,66.09 -6.35,120.74 -19.06,163.95 -12.71,43.21 -27.96,76.25 -45.76,99.13 -17.79,22.87 -43.84,40.03 -78.16,51.47 -34.31,11.44 -63.54,17.79 -87.69,19.06 -24.15,1.27 -60.37,1.91 -108.66,1.91l-1509.85 0c-66.09,0 -120.74,-6.35 -163.95,-19.06 -43.21,-12.71 -76.25,-27.96 -99.13,-45.76 -22.87,-17.79 -40.03,-43.84 -51.47,-78.16 -11.44,-34.31 -17.79,-63.54 -19.06,-87.69 -1.27,-24.15 -1.91,-60.37 -1.91,-108.66l0 -2119.89c0,-129.63 24.15,-217.96 72.44,-264.98 48.3,-47.03 139.8,-70.54 274.52,-70.54l1502.22 0c58.46,0 102.31,1.91 131.54,5.72 29.23,3.81 62.91,15.89 101.04,36.22 38.12,20.34 64.81,54.65 80.06,102.95 15.25,48.29 22.88,113.11 22.88,194.45 0,66.08 -6.35,120.73 -19.06,163.94 -12.71,43.21 -27.96,76.26 -45.76,99.13 -17.79,22.88 -43.84,40.04 -78.16,51.48 -34.31,11.43 -63.54,17.79 -87.69,19.06 -24.15,1.27 -60.37,1.91 -108.66,1.91l-1170.52 0 0 385.08 754.93 0c58.46,0 102.31,1.91 131.54,5.72 29.23,3.82 62.91,15.89 101.03,36.22 38.13,20.34 64.82,54.65 80.07,102.95 15.25,48.29 22.88,113.11 22.88,194.45 0,66.08 -6.36,120.73 -19.07,163.94 -12.7,43.22 -27.96,76.26 -45.75,99.14 -17.79,22.87 -44.48,40.03 -80.07,51.47 -35.58,11.44 -65.45,17.79 -89.6,19.06 -24.14,1.27 -60.36,1.91 -108.66,1.91l-747.3 0 0 385.09z"/>
   <path id="3" class="fil0" d="M8106 2345.78l1174.33 0c58.46,0 102.31,1.9 131.54,5.71 29.23,3.82 62.91,15.89 101.04,36.23 38.12,20.33 64.81,54.64 80.06,102.94 15.25,48.29 22.88,113.11 22.88,194.45 0,66.09 -6.35,120.74 -19.06,163.95 -12.71,43.21 -27.96,76.25 -45.76,99.13 -17.79,22.87 -43.84,40.03 -78.16,51.47 -34.31,11.44 -63.54,17.79 -87.69,19.06 -24.15,1.27 -60.37,1.91 -108.66,1.91l-1509.85 0c-66.09,0 -120.74,-6.35 -163.95,-19.06 -43.21,-12.71 -76.25,-27.96 -99.13,-45.76 -22.87,-17.79 -40.03,-43.84 -51.47,-78.16 -11.44,-34.31 -17.79,-63.54 -19.06,-87.69 -1.27,-24.15 -1.91,-60.37 -1.91,-108.66l0 -2119.89c0,-129.63 24.15,-217.96 72.44,-264.98 48.3,-47.03 139.8,-70.54 274.52,-70.54l1502.22 0c58.46,0 102.31,1.91 131.54,5.72 29.23,3.81 62.91,15.89 101.04,36.22 38.12,20.34 64.81,54.65 80.06,102.95 15.25,48.29 22.88,113.11 22.88,194.45 0,66.08 -6.35,120.73 -19.06,163.94 -12.71,43.21 -27.96,76.26 -45.76,99.13 -17.79,22.88 -43.84,40.04 -78.16,51.48 -34.31,11.43 -63.54,17.79 -87.69,19.06 -24.15,1.27 -60.37,1.91 -108.66,1.91l-1170.52 0 0 385.08 754.93 0c58.46,0 102.31,1.91 131.54,5.72 29.23,3.82 62.91,15.89 101.03,36.22 38.13,20.34 64.82,54.65 80.07,102.95 15.25,48.29 22.88,113.11 22.88,194.45 0,66.08 -6.36,120.73 -19.07,163.94 -12.7,43.22 -27.96,76.26 -45.75,99.14 -17.79,22.87 -44.48,40.03 -80.07,51.47 -35.58,11.44 -65.45,17.79 -89.6,19.06 -24.14,1.27 -60.36,1.91 -108.66,1.91l-747.3 0 0 385.09z"/>
   <path id="4" class="fil0" d="M11926.37 790.18c66.09,134.71 99.13,284.68 99.13,449.9 0,165.22 -33.04,314.55 -99.13,448 -66.09,133.44 -150.6,239.56 -253.55,318.36 -102.94,78.8 -211.6,139.17 -325.98,181.11 -114.39,41.94 -224.96,62.91 -331.71,62.91l-476.6 0 0 430.84c0,58.46 -1.9,102.3 -5.71,131.54 -3.82,29.23 -15.89,62.91 -36.23,101.03 -20.33,38.13 -54.64,64.82 -102.94,80.07 -48.29,15.25 -113.11,22.88 -194.45,22.88 -66.09,0 -120.74,-6.36 -163.95,-19.07 -43.21,-12.71 -76.25,-27.96 -99.13,-45.75 -22.87,-17.79 -40.03,-43.85 -51.47,-78.16 -11.44,-34.32 -17.79,-63.55 -19.06,-87.69 -1.27,-24.15 -1.91,-60.37 -1.91,-108.67l0 -2116.07c0,-58.46 1.91,-102.31 5.72,-131.54 3.81,-29.23 15.89,-62.91 36.22,-101.03 20.33,-38.13 54.65,-64.82 102.94,-80.07 48.3,-15.25 113.12,-22.88 194.45,-22.88l815.93 0c106.76,0 216.69,20.97 329.8,62.91 113.11,41.94 221.14,102.31 324.08,181.11 102.95,78.79 187.46,185.55 253.55,320.27zm-571.91 446.09c0,-109.3 -36.86,-192.55 -110.57,-249.74 -73.71,-57.19 -149.97,-85.78 -228.76,-85.78l-476.6 0 0 674.85 480.41 0c76.25,0 151.24,-27.96 224.95,-83.88 73.71,-55.92 110.57,-141.07 110.57,-255.45z"/>
   <path id="5" class="fil0" d="M13569.66 424.15l1029.44 2127.51c43.21,86.43 64.82,151.24 64.82,194.45 0,91.51 -73.72,174.12 -221.14,247.83 -86.43,43.21 -158.87,64.82 -217.33,64.82 -40.67,0 -76.89,-11.44 -108.66,-34.32 -31.78,-22.87 -54.65,-47.02 -68.63,-72.44 -13.98,-25.42 -33.68,-63.54 -59.1,-114.38l-198.26 -411.78 -1056.13 0 -198.26 411.78c-25.42,50.84 -45.12,87.69 -59.1,110.57 -13.98,22.87 -36.86,46.39 -68.63,70.53 -31.77,24.15 -67.99,36.22 -108.66,36.22 -58.47,0 -130.91,-21.6 -217.33,-64.81 -147.43,-71.17 -221.14,-152.51 -221.14,-244.02 0,-43.21 21.61,-108.02 64.82,-194.45 0,0 343.14,-710.44 1029.44,-2131.32 27.96,-58.46 70.53,-105.48 127.72,-141.07 57.2,-35.59 117.56,-53.38 181.11,-53.38 137.26,0 238.93,66.09 305.02,198.26zm-308.83 915.06l-251.64 522.35 507.09 0 -255.45 -522.35z"/>
   <path id="6" class="fil0" d="M14873.62 561.41c0,-58.46 1.91,-102.31 5.72,-131.54 3.81,-29.23 15.89,-62.91 36.22,-101.03 20.33,-38.13 54.65,-64.82 102.94,-80.07 48.3,-15.25 113.12,-22.88 194.45,-22.88 66.09,0 120.74,6.36 163.95,19.07 43.21,12.7 76.26,27.96 99.13,45.75 22.88,17.79 40.04,43.84 51.47,78.16 11.44,34.31 17.8,63.54 19.07,87.69 1.27,24.15 1.9,60.37 1.9,108.67l0 2119.88c0,61 -1.9,105.48 -5.71,133.44 -3.82,27.96 -15.89,61.01 -36.23,99.14 -20.33,38.12 -54.64,64.81 -102.94,80.06 -48.29,15.25 -113.11,22.88 -194.45,22.88 -66.09,0 -120.74,-6.35 -163.95,-19.06 -43.21,-12.71 -76.25,-27.96 -99.13,-45.76 -22.87,-17.79 -40.03,-43.84 -51.47,-78.16 -11.44,-34.31 -17.79,-63.54 -19.06,-87.69 -1.27,-24.15 -1.91,-60.37 -1.91,-108.66l0 -2119.89z"/>
   <path id="7" class="fil0" d="M17992.44 2547.85c38.12,91.51 57.19,157.59 57.19,198.26 0,96.59 -78.8,177.93 -236.39,244.02 -81.34,35.58 -149.97,53.38 -205.89,53.38 -43.21,0 -80.7,-12.08 -112.48,-36.22 -31.77,-24.15 -54.65,-48.93 -68.63,-74.35 -13.98,-25.42 -32.4,-64.82 -55.28,-118.2 -55.92,-127.09 -137.26,-317.73 -244.02,-571.91l-118.19 7.63 -480.41 0 0 430.84c0,58.46 -1.9,102.3 -5.71,131.54 -3.82,29.23 -15.89,62.91 -36.23,101.03 -20.33,38.13 -54.64,64.82 -102.94,80.07 -48.29,15.25 -113.11,22.88 -194.45,22.88 -66.09,0 -120.74,-6.36 -163.95,-19.07 -43.21,-12.71 -76.25,-27.96 -99.13,-45.75 -22.87,-17.79 -40.03,-43.85 -51.47,-78.16 -11.44,-34.32 -17.79,-63.55 -19.06,-87.69 -1.27,-24.15 -1.91,-60.37 -1.91,-108.67l0 -2116.07c0,-58.46 1.91,-102.31 5.72,-131.54 3.81,-29.23 15.89,-62.91 36.22,-101.03 20.33,-38.13 54.65,-64.82 102.94,-80.07 48.3,-15.25 113.12,-22.88 194.45,-22.88l823.56 0c106.75,0 216.69,20.97 329.8,62.91 113.11,41.94 220.5,102.31 322.17,181.11 101.68,78.79 185.56,185.55 251.64,320.27 66.09,134.71 99.14,284.68 99.14,449.9 0,287.23 -95.32,523.62 -285.96,709.17 55.92,134.72 142.34,334.25 259.27,598.6zm-1464.1 -972.25l488.04 0c73.71,0 147.42,-27.96 221.13,-83.88 73.72,-55.92 110.57,-141.07 110.57,-255.45 0,-109.3 -36.85,-192.55 -110.57,-249.74 -73.71,-57.19 -149.96,-85.78 -228.76,-85.78l-480.41 0 0 674.85z"/>
   <path class="fil1 str0" d="M174.49 3945.66c0,-58.46 1.91,-102.31 5.72,-131.54 3.81,-29.23 15.89,-62.91 36.22,-101.03 20.33,-38.13 54.65,-64.82 102.94,-80.07 48.3,-15.25 113.12,-22.88 194.45,-22.88 66.09,0 120.74,6.36 163.95,19.07 43.21,12.7 76.26,27.96 99.13,45.75 22.88,17.79 40.04,43.84 51.47,78.16 11.44,34.31 17.8,63.54 19.07,87.69 1.27,24.15 1.9,60.37 1.9,108.67l0 2119.88c0,61 -1.9,105.48 -5.71,133.44 -3.82,27.96 -15.89,61.01 -36.23,99.14 -20.33,38.12 -54.64,64.81 -102.94,80.06 -48.29,15.25 -113.11,22.88 -194.45,22.88 -66.09,0 -120.74,-6.35 -163.95,-19.06 -43.21,-12.71 -76.25,-27.96 -99.13,-45.76 -22.87,-17.79 -40.03,-43.84 -51.47,-78.16 -11.44,-34.31 -17.79,-63.54 -19.06,-87.69 -1.27,-24.15 -1.91,-60.37 -1.91,-108.66l0 -2119.89z"/>
   <path id="1" class="fil1 str0" d="M3293.31 5932.1c38.12,91.51 57.19,157.59 57.19,198.26 0,96.59 -78.8,177.93 -236.39,244.02 -81.34,35.58 -149.97,53.38 -205.89,53.38 -43.21,0 -80.7,-12.08 -112.48,-36.22 -31.77,-24.15 -54.65,-48.93 -68.63,-74.35 -13.98,-25.42 -32.4,-64.82 -55.28,-118.2 -55.92,-127.09 -137.26,-317.73 -244.02,-571.91l-118.19 7.63 -480.41 0 0 430.84c0,58.46 -1.9,102.3 -5.71,131.54 -3.82,29.23 -15.89,62.91 -36.23,101.03 -20.33,38.13 -54.64,64.82 -102.94,80.07 -48.29,15.25 -113.11,22.88 -194.45,22.88 -66.09,0 -120.74,-6.36 -163.95,-19.07 -43.21,-12.71 -76.25,-27.96 -99.13,-45.75 -22.87,-17.79 -40.03,-43.85 -51.47,-78.16 -11.44,-34.32 -17.79,-63.55 -19.06,-87.69 -1.27,-24.15 -1.91,-60.37 -1.91,-108.67l0 -2116.07c0,-58.46 1.91,-102.31 5.72,-131.54 3.81,-29.23 15.89,-62.91 36.22,-101.03 20.33,-38.13 54.65,-64.82 102.94,-80.07 48.3,-15.25 113.12,-22.88 194.45,-22.88l823.56 0c106.75,0 216.69,20.97 329.8,62.91 113.11,41.94 220.5,102.31 322.17,181.11 101.68,78.79 185.56,185.55 251.64,320.27 66.09,134.71 99.14,284.68 99.14,449.9 0,287.23 -95.32,523.62 -285.96,709.17 55.92,134.72 142.34,334.25 259.27,598.6zm-1464.1 -972.25l488.04 0c73.71,0 147.42,-27.96 221.13,-83.88 73.72,-55.92 110.57,-141.07 110.57,-255.45 0,-109.3 -36.85,-192.55 -110.57,-249.74 -73.71,-57.19 -149.96,-85.78 -228.76,-85.78l-480.41 0 0 674.85z"/>
   <path id="2" class="fil1 str0" d="M4235.05 5730.03l1174.33 0c58.46,0 102.31,1.9 131.54,5.71 29.23,3.82 62.91,15.89 101.04,36.23 38.12,20.33 64.81,54.64 80.06,102.94 15.25,48.29 22.88,113.11 22.88,194.45 0,66.09 -6.35,120.74 -19.06,163.95 -12.71,43.21 -27.96,76.25 -45.76,99.13 -17.79,22.87 -43.84,40.03 -78.16,51.47 -34.31,11.44 -63.54,17.79 -87.69,19.06 -24.15,1.27 -60.37,1.91 -108.66,1.91l-1509.85 0c-66.09,0 -120.74,-6.35 -163.95,-19.06 -43.21,-12.71 -76.25,-27.96 -99.13,-45.76 -22.87,-17.79 -40.03,-43.84 -51.47,-78.16 -11.44,-34.31 -17.79,-63.54 -19.06,-87.69 -1.27,-24.15 -1.91,-60.37 -1.91,-108.66l0 -2119.89c0,-129.63 24.15,-217.96 72.44,-264.98 48.3,-47.03 139.8,-70.54 274.52,-70.54l1502.22 0c58.46,0 102.31,1.91 131.54,5.72 29.23,3.81 62.91,15.89 101.04,36.22 38.12,20.34 64.81,54.65 80.06,102.95 15.25,48.29 22.88,113.11 22.88,194.45 0,66.08 -6.35,120.73 -19.06,163.94 -12.71,43.21 -27.96,76.26 -45.76,99.13 -17.79,22.88 -43.84,40.04 -78.16,51.48 -34.31,11.43 -63.54,17.79 -87.69,19.06 -24.15,1.27 -60.37,1.91 -108.66,1.91l-1170.52 0 0 385.08 754.93 0c58.46,0 102.31,1.91 131.54,5.72 29.23,3.82 62.91,15.89 101.03,36.22 38.13,20.34 64.82,54.65 80.07,102.95 15.25,48.29 22.88,113.11 22.88,194.45 0,66.08 -6.36,120.73 -19.07,163.94 -12.7,43.22 -27.96,76.26 -45.75,99.14 -17.79,22.87 -44.48,40.03 -80.07,51.47 -35.58,11.44 -65.45,17.79 -89.6,19.06 -24.14,1.27 -60.36,1.91 -108.66,1.91l-747.3 0 0 385.09z"/>
   <path id="3" class="fil1 str0" d="M6667.58 5840.59l1037.07 0c50.84,0 88.33,1.91 112.48,5.72 24.14,3.82 51.47,13.35 81.97,28.6 30.5,15.25 52.11,43.21 64.82,83.88 12.71,40.67 19.06,95.32 19.06,163.95 0,66.08 -6.35,119.46 -19.06,160.13 -12.71,40.67 -34.95,69.27 -66.73,85.79 -31.77,16.52 -60.37,26.69 -85.78,30.5 -25.42,3.81 -62.28,5.72 -110.57,5.72l-1372.59 0c-66.09,0 -120.74,-6.35 -163.95,-19.06 -43.21,-12.71 -76.25,-27.96 -99.13,-45.76 -22.87,-17.79 -40.03,-43.84 -51.47,-78.16 -11.44,-34.31 -17.79,-63.54 -19.06,-87.69 -1.27,-24.15 -1.91,-60.37 -1.91,-108.66l0 -2119.89c0,-58.46 1.91,-102.31 5.72,-131.54 3.81,-29.23 15.89,-62.91 36.22,-101.03 20.33,-38.13 54.65,-64.82 102.94,-80.07 48.3,-15.25 113.12,-22.88 194.45,-22.88 66.09,0 120.74,6.36 163.95,19.07 43.21,12.7 76.26,27.96 99.13,45.75 22.88,17.79 40.04,43.84 51.47,78.16 11.44,34.31 17.8,63.54 19.07,87.69 1.27,24.15 1.9,60.37 1.9,108.67l0 1891.11z"/>
   <path id="4" class="fil1 str0" d="M9843.6 3808.4l1029.44 2127.51c43.21,86.43 64.82,151.24 64.82,194.45 0,91.51 -73.72,174.12 -221.14,247.83 -86.43,43.21 -158.87,64.82 -217.33,64.82 -40.67,0 -76.89,-11.44 -108.66,-34.32 -31.78,-22.87 -54.65,-47.02 -68.63,-72.44 -13.98,-25.42 -33.68,-63.54 -59.1,-114.38l-198.26 -411.78 -1056.13 0 -198.26 411.78c-25.42,50.84 -45.12,87.69 -59.1,110.57 -13.98,22.87 -36.86,46.39 -68.63,70.53 -31.77,24.15 -67.99,36.22 -108.66,36.22 -58.47,0 -130.91,-21.6 -217.33,-64.81 -147.43,-71.17 -221.14,-152.51 -221.14,-244.02 0,-43.21 21.61,-108.02 64.82,-194.45 0,0 343.14,-710.44 1029.44,-2131.32 27.96,-58.46 70.53,-105.48 127.72,-141.07 57.2,-35.59 117.56,-53.38 181.11,-53.38 137.26,0 238.93,66.09 305.02,198.26zm-308.83 915.06l-251.64 522.35 507.09 0 -255.45 -522.35z"/>
   <path id="5" class="fil1 str0" d="M13256 3613.95c63.55,0 117.56,6.36 162.05,19.07 44.48,12.71 77.52,27.96 99.13,45.75 21.6,17.79 38.12,43.85 49.56,78.16 11.44,34.32 17.8,63.55 19.07,87.7 1.27,24.14 1.9,60.36 1.9,108.66l0 2116.07c0,61 -1.9,105.48 -5.72,133.44 -3.81,27.96 -15.88,61.01 -36.22,99.14 -20.33,38.12 -54.65,64.81 -102.94,80.06 -48.3,15.25 -113.11,22.88 -194.45,22.88 -99.13,0 -167.76,-7.63 -205.89,-22.88 -38.13,-15.25 -69.9,-39.39 -95.32,-72.44 -571.91,-762.55 -948.1,-1260.74 -1128.57,-1494.59l0 1254.39c0,61 -1.9,105.48 -5.72,133.44 -3.81,27.96 -15.88,61.01 -36.22,99.14 -20.33,38.12 -54.65,64.81 -102.94,80.06 -48.3,15.25 -113.11,22.88 -194.45,22.88 -78.8,0 -141.71,-7.63 -188.73,-22.88 -47.03,-15.25 -80.71,-41.94 -101.04,-80.06 -20.33,-38.13 -32.41,-72.45 -36.22,-102.95 -3.81,-30.5 -5.72,-74.98 -5.72,-133.44l0 -2127.51c0,-58.46 2.54,-101.68 7.63,-129.64 5.08,-27.96 17.15,-59.73 36.22,-95.31 19.06,-35.59 52.74,-61.01 101.03,-76.26 48.3,-15.25 113.12,-22.88 194.45,-22.88 71.17,0 129,6.99 173.48,20.97 44.49,13.98 75.62,29.24 93.42,45.76 17.79,16.52 40.66,42.57 68.62,78.16l19.07 22.87c536.32,729.51 894.72,1211.19 1075.19,1445.03l0 -1288.7c0,-58.46 2.54,-101.68 7.63,-129.64 5.08,-27.96 17.15,-59.73 36.22,-95.31 19.06,-35.59 52.74,-61.01 101.04,-76.26 48.29,-15.25 113.11,-22.88 194.44,-22.88z"/>
   <path id="6" class="fil1 str0" d="M16329.07 4990.35c0,386.36 -136.62,718.07 -409.87,995.13 -273.25,277.06 -604.32,415.59 -993.22,415.59l-697.73 0c-76.25,0 -138.53,-7.63 -186.82,-22.88 -48.3,-15.25 -82.61,-40.03 -102.95,-74.35 -20.33,-34.31 -33.04,-68.63 -38.12,-102.94 -5.09,-34.32 -7.63,-80.7 -7.63,-139.17l0 -2119.88c0,-61 1.91,-105.49 5.72,-133.45 3.81,-27.96 15.89,-61 36.22,-99.13 20.33,-38.12 54.65,-64.81 102.94,-80.06 48.3,-15.26 113.12,-22.88 194.45,-22.88 76.26,0 193.18,0.63 350.78,1.91 157.59,1.27 275.78,1.9 354.58,1.9 368.57,0 692.65,132.81 972.25,398.43 279.6,265.62 419.4,592.88 419.4,981.78zm-674.85 15.25c0,-203.34 -71.81,-374.28 -215.42,-512.81 -143.62,-138.53 -312.01,-207.79 -505.19,-207.79l-366.03 0 0 1441.21 369.84 0c183.01,0 348.23,-67.99 495.66,-203.98 147.42,-135.99 221.14,-308.2 221.14,-516.63z"/>
  </g>
 </g>
</svg>
