<?xml version="1.0" encoding="UTF-8"?>
<!DOCTYPE svg PUBLIC "-//W3C//DTD SVG 1.1//EN" "http://www.w3.org/Graphics/SVG/1.1/DTD/svg11.dtd">
<!-- Creator: CorelDRAW 2020 (64-Bit) -->
<svg xmlns="http://www.w3.org/2000/svg" xml:space="preserve" width="1002.95mm" height="705.556mm" version="1.1" style="shape-rendering:geometricPrecision; text-rendering:geometricPrecision; image-rendering:optimizeQuality; fill-rule:evenodd; clip-rule:evenodd"
viewBox="0 0 100294.72 70555.56"
 xmlns:xlink="http://www.w3.org/1999/xlink"
 xmlns:xodm="http://www.corel.com/coreldraw/odm/2003">
 <defs>
  <style type="text/css">
   <![CDATA[
    .fil6 {fill:#FCD5A6;fill-rule:nonzero}
    .fil4 {fill:#F7AA47;fill-rule:nonzero}
    .fil3 {fill:#F08143;fill-rule:nonzero}
    .fil0 {fill:#B0CB1F;fill-rule:nonzero}
    .fil19 {fill:#0E2E35;fill-rule:nonzero}
    .fil26 {fill:#103D46;fill-rule:nonzero}
    .fil14 {fill:#13375B;fill-rule:nonzero}
    .fil5 {fill:#184655;fill-rule:nonzero}
    .fil15 {fill:#355389;fill-rule:nonzero}
    .fil1 {fill:#50BFA5;fill-rule:nonzero}
    .fil8 {fill:#5184CE;fill-rule:nonzero}
    .fil18 {fill:#815147;fill-rule:nonzero}
    .fil10 {fill:#9AC1F9;fill-rule:nonzero}
    .fil16 {fill:#9BC1F9;fill-rule:nonzero}
    .fil9 {fill:#AFD0FB;fill-rule:nonzero}
    .fil22 {fill:#B4D2F9;fill-rule:nonzero}
    .fil11 {fill:#BADAFB;fill-rule:nonzero}
    .fil21 {fill:#BCD8FA;fill-rule:nonzero}
    .fil20 {fill:#C8E1FB;fill-rule:nonzero}
    .fil25 {fill:#D6E7FC;fill-rule:nonzero}
    .fil17 {fill:#DABD7E;fill-rule:nonzero}
    .fil24 {fill:#DBEBFC;fill-rule:nonzero}
    .fil23 {fill:#E2F0FD;fill-rule:nonzero}
    .fil7 {fill:#E9FFFF;fill-rule:nonzero}
    .fil2 {fill:#F47458;fill-rule:nonzero}
    .fil12 {fill:#F7CC7F;fill-rule:nonzero}
    .fil13 {fill:white;fill-rule:nonzero}
   ]]>
  </style>
 </defs>
 <g id="Layer_x0020_1">
  <metadata id="CorelCorpID_0Corel-Layer"/>
  <path class="fil0" d="M74136.52 15959.39l0.74 -0.08c1295.79,-4308.17 5839.52,-6749.74 10148,-5453.36 4308.47,1296.52 6749.59,5839.96 5453.07,10148.21l0 0c-1296.52,4308.25 -5839.53,6749.82 -10148,5453.37 -4308.47,-1296.38 -6749.59,-5839.89 -5453.81,-10148.14zm-2667.54 -313c-1466.88,5772.48 2036.24,11662.09 7808.65,13128.97 5772.42,1466.96 11661.34,-2035.94 13128.97,-7808.27 1466.89,-5772.41 -2036.24,-11662.01 -7808.64,-13128.9 -5772.41,-1466.96 -11662.09,2035.87 -13128.98,7808.2z"/>
  <path class="fil0" d="M71098.03 15552.21c736.02,-2895.35 2554.69,-5330.87 5122.67,-6857.93 2567.23,-1527.06 5576.23,-1962.86 8471.66,-1227.06 2895.42,735.81 5330.64,2555 6858.01,5122.61 1526.62,2567.6 1962.48,5576.16 1227.19,8471.51 -736.02,2895.35 -2555.43,5330.86 -5122.67,6857.93 -2567.97,1527.07 -5576.23,1962.78 -8471.66,1227.06 -2895.42,-735.81 -5330.65,-2555.08 -6858,-5122.6 -1527.37,-2567.61 -1962.49,-5576.17 -1227.2,-8471.52zm-7113.71 110.93c50.97,257.98 284.68,348.09 860.82,576.64 1030.5,408.8 2061.67,817.75 3077.21,1262.24 160.04,69.99 319.34,318.97 339.25,500.47 117.27,1079.03 169.63,2165.44 297.96,3242.86 39.81,333.85 7.36,511.37 -292.79,699.95 -1199.18,753.59 -2377.78,1540.87 -3550.7,2307.2 293.09,1257.87 1770.73,4085.23 2560.23,4875.91 1244.16,-523.49 2522.99,-1038.99 3780.42,-1603.99 391.62,-175.82 591.48,-142.05 917.45,169.7 755.94,722.96 1581.2,1379.2 2413.84,2015.07 337.04,257.53 517.73,459.39 407.84,923.27 -283.2,1202.56 -493.38,2422.1 -756.68,3629.68 -70.8,324.5 -8.85,527.45 311.22,626.65 1508.19,466.76 3016.39,931.39 4523.83,1397.57 370.96,114.53 427.75,-190.28 519.94,-408.36 469.05,-1104.71 943.26,-2207.41 1373.96,-3326.71 161.51,-420.23 379.07,-558.59 835.59,-572.89 1208.02,-37.91 2413.84,-154.59 3713.31,-246.47 769.21,1167.09 1617.33,2455.57 2489.8,3779.97 1751.56,-579.82 3328.33,-1448 4821.77,-2596.44 -590.73,-1421.23 -1182.95,-2843.05 -1704.36,-4096.07 894.59,-1133.17 1746.4,-2164.42 2535.52,-3241.61 227.89,-311.74 407.11,-363.07 750.04,-287.77 1189.59,261.3 2387.28,485.49 3579.09,738.61 257.38,54.72 446.18,64.68 578.2,-216.75 666.7,-1421.98 1204.33,-2880.9 1421.9,-4448.97 48.67,-349.5 -77.45,-487.48 -365.07,-606.44 -1159.34,-478.71 -2309.11,-979.62 -3469.93,-1453.54 -281.73,-114.83 -398.99,-234.16 -424.81,-577.17 -88.5,-1190.03 -228.61,-2377.69 -398.24,-3559.1 -43.52,-301.79 52.36,-419.2 264.76,-559.1 1183.68,-779.47 2361.47,-1567.63 3570.97,-2372.98 -613.59,-1723.61 -1396.82,-3323.47 -2518.56,-4794.55 -1449.92,603.42 -2890.26,1202.86 -4268.65,1776.48 -1161.56,-963.32 -2286.24,-1896.1 -3489.1,-2894.24 213.13,-1063.85 467.57,-2287.65 701.35,-3515.44 191.75,-1007.64 336.3,-875.19 -676.29,-1299.99 -96.61,-40.56 -178.47,-116.16 -266.97,-175.46 -904.91,-272.5 -1811.3,-544.93 -2716.2,-817.44 -211.67,-23.97 -433.65,-15.19 -632.79,-78.31 -518.46,-164.25 -810.5,-46.4 -1017.01,508.71 -430.7,1156.85 -933.67,2287.29 -1433.7,3416.55 -65.64,147.94 -280.98,302.16 -443.24,322.73 -1059.04,134.07 -2133.58,176.63 -3181.56,365.5 -513.31,92.41 -728.66,-47.78 -982.35,-447.73 -717.6,-1134.13 -1482.38,-2238.83 -2303.21,-3467.29 -1623.98,852.77 -3208.86,1684.61 -4810.72,2525.94 126.12,319.26 194.7,504.16 271.4,686.46 467.58,1124.03 925.56,2252.48 1413.79,3367.8 137.91,316.75 67.85,494.71 -148.97,752.4 -744.88,885.29 -1432.97,1818.53 -2171.95,2709.05 -115.04,138.14 -398.24,235.12 -578.2,203.92 -983.82,-170.95 -1958.06,-396.33 -2938.85,-586.9 -793.41,-154.21 -1088.7,-208.64 -1339.89,50.45l-1450.67 4819.93z"/>
  <path class="fil1" d="M7220.74 26803.21c-1075.34,-2144.94 -1250.94,-4580.24 -494.57,-6857.27 756.31,-2277.03 2354.11,-4123.21 4499.05,-5198.56 2144.88,-1075.27 4580.24,-1250.94 6857.27,-494.57 2277.03,756.31 4123.29,2354.17 5198.56,4499.12 1075.28,2144.94 1250.88,4580.25 494.57,6857.2 -756.37,2277.11 -2354.17,4123.28 -4499.11,5198.56 -2144.88,1075.27 -4580.18,1250.94 -6857.21,494.64 -2277.09,-756.38 -4123.28,-2354.17 -5198.56,-4499.12zm-4261.35 3807.05c166.54,129.87 355.63,61.88 825.64,-102.22 840.82,-293.67 1682.02,-587.34 2532.21,-851.29 133.85,-41.52 361.82,25.74 469.19,125.52 638.53,593.47 1241.29,1225.72 1885.57,1812.48 199.78,181.87 273.31,306.72 190.19,579.02 -332.08,1088.1 -633.73,2185.57 -943.18,3267.78 839.34,609.24 3222.8,1549.56 4117.98,1614.68 480.32,-971.95 986.03,-1957.47 1452.36,-2961.29 145.13,-312.47 284.3,-397.07 646.12,-379.14 839.42,41.37 1685.18,6.27 2525.34,-45.57 340.29,-21.03 555.56,7 733.01,346.25 460.05,879.1 973.43,1730.24 1448.45,2601.75 127.65,234.37 271.84,325.31 518.61,216.9 1160.82,-509.17 2320.83,-1019.89 3481.43,-1529.43 285.35,-125.23 159.83,-340.21 101.26,-521.41 -296.33,-917.01 -587.79,-1836.08 -914.49,-2742.25 -122.73,-340.28 -63.72,-538.3 205.98,-787.05 713.82,-658.15 1384.65,-1362.9 2125.47,-2101.88 1080.3,304.59 2273.05,640.89 3499,986.56 758.52,-1272.78 1259.79,-2629.12 1563.12,-4111.65 -1106.39,-552.08 -2213.08,-1104.4 -3188.43,-1591.07 -52.51,-1158.4 -77.36,-2232.34 -164.46,-3301.28 -25.3,-309.38 56.49,-434.67 304.22,-569.13 859.7,-466.68 1704.81,-960.22 2561.41,-1432.81 185.11,-102.21 305.11,-195.51 237.26,-435.71 -342.65,-1213.93 -783.01,-2382.64 -1475.45,-3448.92 -154.36,-237.69 -303.04,-255.54 -540.44,-176.41 -955.5,318.61 -1917.05,618.91 -2871.16,941.5 -231.13,78.1 -365.35,67.62 -561.23,-127.3 -679.31,-676.07 -1388.72,-1323.66 -2113.09,-1951.57 -185.04,-160.48 -188.5,-282.1 -133.05,-478.71 308.87,-1095.48 609.63,-2193.18 920.99,-3318.31 -1278.82,-723.92 -2595.33,-1283.76 -4049.83,-1587.39 -563.07,1128.45 -1122.62,2249.74 -1658.12,3322.73 -1211.71,25.6 -2384.85,50.37 -3640.3,76.85 -429.81,-758.08 -918.62,-1635.04 -1422.05,-2503.51 -413.21,-712.8 -255.83,-708.24 -1093.93,-434.03 -79.94,26.11 -169.4,23.31 -254.44,33.92 -693.09,310.57 -1386.12,621.13 -2079.16,931.62 -141.15,96.76 -271.32,218.74 -425.46,285.19 -401.12,172.72 -516.46,397.73 -350.01,843.4 346.76,928.73 635.57,1879.59 925.48,2828.39 37.91,124.27 -11.72,331.06 -99.55,428.93 -572.9,638.38 -1202.72,1228.89 -1740.06,1894.64 -262.85,325.82 -467.58,354.15 -831.53,244.41 -1032.13,-311.38 -2077.1,-580.27 -3221.55,-894.6 -537.86,1371.68 -1062.67,2709.73 -1593.3,4062.81 244.26,127.67 383.65,203.48 525.55,274.2 875.11,436.61 1746.39,881.1 2629.11,1301.84 250.6,119.48 301.27,264.62 305.03,535.06 13.05,929.25 85.92,1857.61 105.24,2786.94 2.95,144.11 -118,351.93 -243.6,427.46 -687.34,413.43 -1397.48,788.89 -2093.24,1188.77 -562.93,323.47 -770.76,445.59 -787.21,735.06l1653.1 3689.27z"/>
  <path class="fil2" d="M52673.88 18998.69c353.19,-1876.34 2160.43,-3111.13 4036.56,-2758.1 1876.5,353.05 3111,2160.29 2758.24,4036.56l0 0c-353.19,1876.35 -2160.43,3111.14 -4036.55,2758.11 -1876.5,-353.04 -3111.36,-2160.28 -2758.25,-4036.57l0 0zm-3902.55 -1767.04l-394.63 2099.22c32.74,106.57 135.47,134 388.95,204.5 453.19,126.12 906.83,252.23 1355.09,394.05 70.79,22.34 149.55,120.29 165.93,195.96 98.24,450.02 168.96,906.09 271.7,1354.93 32,139.09 26.32,215.42 -92.04,308.49 -472.3,372.08 -933.9,757.27 -1394.39,1133.47 180.38,517.57 931.24,1644.11 1299.98,1942.13 501.58,-276.86 1017.98,-552.01 1523.02,-847.01 157.16,-91.75 243.14,-86.52 394.63,30.31 351.57,271.03 729.09,510.79 1109.27,741.63 154.14,93.44 239.03,170.5 213.88,371.18 -65.41,520.15 -99.34,1044.22 -156.06,1565.64 -15.19,140.13 20.22,223.01 159.89,250.45 656.82,129.07 1314.37,257.17 1971.63,386.01 161.37,31.64 171.62,-99.49 200.9,-195.81 148.09,-487.19 298.76,-973.87 430.04,-1465.56 49.48,-184.66 134.73,-252.74 326.49,-279.37 508.43,-70.35 1011.93,-173.9 1556.12,-271.17 376.72,457.84 793.03,963.32 1220.78,1482.97 712.8,-323.55 1339.15,-760.96 1917.66,-1312.83 -313.59,-573.03 -627.18,-1146.37 -903.44,-1651.64 326.49,-518.46 639.33,-991.93 923.56,-1482 82.6,-141.82 155.69,-171.54 303.71,-155.24 513.74,56.72 1029.4,97.42 1543.51,150.53 111.15,11.49 191.02,7.22 234.08,-117.49 217.27,-630.04 378.63,-1269.9 399.95,-1941.32 4.57,-149.64 -54.8,-202.23 -181.57,-239.47 -510.65,-149.85 -1018.35,-309.38 -1529.43,-457.1 -124.04,-35.77 -179.21,-80.83 -205.46,-224.42 -91.02,-498.18 -203.26,-992.97 -328.49,-1483.77 -31.93,-125.46 3.46,-179.29 86.81,-247.88 464.25,-382.18 925.48,-767.89 1400.06,-1162.15 -336.81,-699.67 -739.05,-1339.44 -1278.67,-1909.76 -584.55,319.93 -1165.62,637.72 -1721.25,941.86 -533.51,-354.14 -1049.91,-697.16 -1602.52,-1064.13 41.9,-458.51 94.03,-986.41 137.4,-1514.97 35.77,-433.88 102.73,-384.46 -343.6,-518.17 -42.63,-12.76 -80.68,-40.93 -120.66,-61.95 -394.26,-74.2 -788.53,-148.46 -1183.17,-222.58 -28.09,-0.23 -56.71,0.96 -85.25,2.21 -62.77,2.66 -125.53,5.31 -185.34,-6.78 -225.96,-46.02 -343.97,16.89 -405.99,260.4 -129.43,507.56 -290.8,1007.22 -450.98,1506.28 -21.31,65.34 -105.02,140.13 -172.72,156.05 -441.1,104.28 -892.45,170.67 -1326.25,297.59 -212.4,62.09 -309.46,12.67 -434.23,-144.7 -354.3,-446.34 -726.52,-878.07 -1128.31,-1359.44 -647.01,433.07 -1277.94,855.36 -1916.1,1282.51 67.33,129.06 105.02,204 145.37,277.45 248.08,453.27 492.05,908.82 748.11,1357.45 72.72,127.44 51.03,205.68 -28.91,324.2 -274.34,407.1 -522.88,831.82 -794.57,1240.92 -42.27,63.42 -157.17,117.11 -234.46,112.03 -422.74,-27.81 -844.44,-78.99 -1266.8,-115.28 -341.76,-29.35 -468.83,-39.02 -563.23,81.57z"/>
  <path class="fil3" d="M51869.78 18588.2l-6716.03 0c-687.28,0 -1244.75,557.26 -1244.75,1244.61l0 2200.48c0,687.28 557.47,1244.53 1244.75,1244.53l6716.03 0c687.28,0 1244.39,-557.25 1244.39,-1244.53l0 -2200.48c0,-687.35 -557.11,-1244.61 -1244.39,-1244.61z"/>
  <polygon class="fil4" points="42972.81,64815.28 35859.55,68094.12 35859.55,68820.21 61191.78,68820.21 61191.78,68094.12 54014.58,64815.28 "/>
  <polygon class="fil4" points="42972.81,64821.32 54018.71,64821.32 54018.71,50762.58 42972.81,50762.58 "/>
  <path class="fil4" d="M81921.57 55172.84l0 -31702.68c0,-1506.34 -1221.3,-2727.43 -2727.27,-2727.43l-61468.68 0c-1506.27,0 -2727.43,1221.09 -2727.43,2727.43l0 31702.68 66923.38 0z"/>
  <polygon class="fil3" points="35859.55,68820.21 61191.86,68820.21 61191.86,68094.12 35859.55,68094.12 "/>
  <polygon class="fil3" points="42972.81,64815.28 54014.58,64815.28 54014.58,63165.57 42972.81,63165.57 "/>
  <path class="fil3" d="M14998.19 55172.84l0 5080.33c0,1056.4 698.49,1913.08 1560.18,1913.08l63803.39 0c861.4,0 1559.81,-856.68 1559.81,-1913.08l0 -5080.33 -66923.38 0z"/>
  <path class="fil5" d="M49186.91 19833.7c0,343.15 -278.18,621.34 -621.49,621.34 -343.23,0 -621.05,-278.19 -621.05,-621.34 0,-343.09 277.82,-621.28 621.05,-621.28 343.31,0 621.49,278.19 621.49,621.28z"/>
  <path class="fil6" d="M80355.12 53796l0 -30241.17c0,-792.74 -665.96,-1435.41 -1486.8,-1435.41l-60816.43 0c-821.28,0 -1487.02,642.67 -1487.02,1435.41l0 30241.17 63790.25 0z"/>
  <polygon class="fil7" points="19366.18,51314.02 57707.09,51314.02 57707.09,24560.7 19366.18,24560.7 "/>
  <polygon class="fil8" points="19366.18,27693.08 57707.09,27693.08 57707.09,24560.76 19366.18,24560.76 "/>
  <path class="fil9" d="M60386.95 51511.15l0 -11602.35 1761.15 0c210.85,640.15 496.26,1260.47 855.94,1848.77l0 825.41 -2617.09 0 0 8928.17z"/>
  <path class="fil10" d="M73969.12 51511.15l-2617.4 0 0 -5520.34c893.85,-76.1 1777.38,-287.7 2617.4,-634.39l0 6154.73z"/>
  <path class="fil10" d="M70314.06 51511.15l-2617.38 0 0 -5974.71c848.86,293.02 1731.64,453.64 2617.38,481.82l0 5492.89zm-398.98 -6538.3c-755.21,-65.05 -1503.03,-239.32 -2218.4,-522.89l0 0c715.37,283.57 1463.93,457.84 2218.4,522.89z"/>
  <path class="fil10" d="M77676.52 51511.15l-2617.39 0 0 -8706.71c66.38,-39.15 132.75,1930.19 197.66,1889.49 264.02,224.12 922.68,-1525.2 992,-1441.12 0,0 590.67,948.61 1427.73,1874.91l0 6383.43zm0 -5651.24l-1234.57 -984.12 -0.74 0.44c-19.18,-61.66 -221.99,-726.13 -232.31,-844.88 0,-6.85 -2.21,-14.08 -4.42,-21.31 58.99,-48.68 117.25,-98.53 174.78,-148.75l1297.26 1266.43 0 732.19zm0 -2692.75l-317.12 -309.83c109.89,-132.38 215.35,-266.76 317.12,-403.71l0 713.54zm-1550.22 -473.04c2.21,-2.29 5.16,-4.94 7.37,-7.23 -2.21,2.29 -5.16,4.94 -7.37,7.23z"/>
  <path class="fil10" d="M66659.24 51511.15l-2617.1 0 0 -8377.84c110.41,120.58 225.31,238.95 343.61,354.65 687.71,671.64 1456.4,1209.72 2273.49,1614.32l0 6408.87zm0 -7563.87c-517.95,-299.87 -1009.64,-664.04 -1463.28,-1092.17 453.64,428.13 945.33,791.93 1463.28,1092.17l0 0zm-1535.55 -1161.05c0,-0.36 0.36,0 0,-0.36 0.36,0.36 0,0 0,0.36z"/>
  <polygon class="fil10" points="60386.95,51511.15 63004,51511.15 63004,42582.98 60386.95,42582.98 "/>
  <polygon class="fil11" points="20688.97,33525.16 56077.88,33525.16 56077.88,28983 20688.97,28983 "/>
  <polygon class="fil11" points="33300.28,35979.26 56077.88,35979.26 56077.88,34815.13 33300.28,34815.13 "/>
  <polygon class="fil8" points="20688.97,48250.22 31894.17,48250.22 31894.17,34815.19 20688.97,34815.19 "/>
  <path class="fil11" d="M56077.96 38433.43c-7620.38,0 -15166.52,0 -22777.68,0l0 -1164.06 22777.68 0 0 1164.06z"/>
  <path class="fil11" d="M56077.96 45795.97l-22777.68 0 0 -1164.07c7566.95,0 15182.49,0 22777.68,0l0 1164.07z"/>
  <polygon class="fil11" points="33300.28,48250.22 56077.88,48250.22 56077.88,47086.09 33300.28,47086.09 "/>
  <path class="fil12" d="M4692.67 39632.91l21274.06 -38.43c319.49,-0.36 578.94,258.06 579.53,577.68l50.45 28032.69c0.58,319.66 -257.9,578.82 -577.39,579.57l-21274.14 38.47c-319.49,0.37 -578.93,-258.05 -579.53,-577.71l-50.44 -28032.67c-0.59,-319.64 257.9,-578.79 577.46,-579.6z"/>
  <polygon class="fil13" points="5283.19,40446.15 25379.09,40410.01 25428.43,67809.83 5332.53,67845.99 "/>
  <path class="fil14" d="M19685.67 39218.88c-0.22,-123.31 -100.3,-222.95 -223.53,-222.59l-8437.89 15.2c-123.23,0 -222.94,100.08 -222.72,223.39l1.55 877.18 8884.13 -16 -1.54 -877.18z"/>
  <path class="fil14" d="M15245.18 40121.57c-471.33,0.75 -854.1,-380.54 -854.98,-851.66 -0.81,-471.55 380.55,-854.4 851.88,-855.13 471.34,-0.74 854.1,380.54 854.99,852.03 0.88,471.19 -380.55,854.03 -851.89,854.76zm-3.91 -2183.96c-734.99,1.12 -1329.7,598.19 -1328.38,1333.04 1.33,734.84 598.19,1329.63 1333.17,1328.09 734.92,-1.11 1329.65,-597.82 1328.32,-1333.03 -1.32,-734.85 -598.19,-1329.64 -1333.11,-1328.1z"/>
  <path class="fil15" d="M19549.01 39013.4c80.17,33.86 136.51,112.99 136.66,205.48l1.54 877.18 -8884.13 16c1.1,607.33 494.49,1099.02 1102.12,1097.92l6683.88 -11.8c607.62,-1.19 1099.25,-494.72 1098.13,-1102.12l-1.54 -877.18c-0.15,-92.49 -56.49,-171.62 -136.66,-205.48z"/>
  <path class="fil16" d="M11024.25 39011.49l0 0c-77.06,0 -144.91,39.16 -184.89,98.6 39.98,-59.44 107.83,-98.6 184.89,-98.6z"/>
  <path class="fil16" d="M10811.41 39168.65c4.36,-14.09 10.03,-27.36 16.82,-40.34 -6.79,12.98 -12.46,26.25 -16.82,40.34z"/>
  <path class="fil5" d="M20334.44 48381.13l2623.22 -4.65 -4.72 -2623.14 -2623.21 4.65 4.71 2623.14zm2740.26 111.88l-2856.78 5.3 -5.16 -2856.84 2856.78 -5.31 5.16 2856.85z"/>
  <path class="fil5" d="M20343 53134.53l2623.21 -4.5 -4.64 -2623.58 -2623.29 4.94 4.72 2623.14zm2740.26 111.95l-2856.79 4.94 -5.15 -2856.4 2856.77 -5.39 5.17 2856.85z"/>
  <path class="fil5" d="M20351.56 57888.08l2623.28 -4.56 -4.72 -2623.51 -2623.21 4.87 4.65 2623.2zm2740.25 111.89l-2856.77 4.94 -5.17 -2856.48 2856.77 -5.32 5.17 2856.86z"/>
  <path class="fil5" d="M20360.18 62641.57l2623.22 -4.94 -4.73 -2623.22 -2623.2 5.02 4.71 2623.14zm2740.19 111.87l-2856.78 4.95 -5.16 -2856.85 2856.77 -4.87 5.17 2856.77z"/>
  <polygon class="fil16" points="6790.7,46135.07 19016.83,46113.02 19016.09,45702.01 6789.97,45724.06 "/>
  <polygon class="fil16" points="6792.85,47299.58 19018.9,47277.46 19018.23,46866.45 6792.04,46888.21 "/>
  <polygon class="fil16" points="6794.91,48464.1 19021.03,48441.97 19020.3,48030.6 6794.18,48052.65 "/>
  <polygon class="fil16" points="6799.56,51051.03 19025.68,51028.98 19024.94,50617.59 6798.82,50639.72 "/>
  <polygon class="fil16" points="6801.7,52215.17 19027.82,52193.49 19027.08,51782.1 6800.96,51804.15 "/>
  <polygon class="fil16" points="6803.77,53379.67 19029.89,53357.55 19029.15,52946.62 6803.02,52968.67 "/>
  <polygon class="fil16" points="6807.96,55708.62 19034.09,55686.57 19033.35,55275.2 6807.23,55297.25 "/>
  <polygon class="fil16" points="6810.11,56872.77 19036.16,56851.09 19035.49,56439.71 6809.29,56461.76 "/>
  <polygon class="fil16" points="6812.17,58037.21 19038.22,58015.16 19037.56,57604.15 6811.44,57626.27 "/>
  <polygon class="fil16" points="6816.38,60366.23 19042.5,60344.11 19041.76,59932.81 6815.56,59954.86 "/>
  <polygon class="fil16" points="6818.44,61530.74 19044.56,61508.62 19043.83,61097.25 6817.7,61119.29 "/>
  <polygon class="fil16" points="6820.5,62694.82 19046.7,62672.77 19045.89,62261.76 6819.77,62283.81 "/>
  <polygon class="fil16" points="6825.96,65705.36 20930.57,65679.91 20929.9,65268.91 6825.22,65294.35 "/>
  <polygon class="fil16" points="6827.73,66701.68 23713.89,66671.23 23713.15,66260.22 6826.99,66290.66 "/>
  <polygon class="fil2" points="21632.15,48026.02 20745.01,46503.82 21062.44,46318.85 21577.43,47202.53 22418.04,45185.61 22757.21,45327.14 "/>
  <polygon class="fil2" points="21640.85,52841.53 20753.71,51319.69 21071.13,51134.72 21586.13,52018.03 22426.73,50001.48 22765.91,50142.65 "/>
  <polygon class="fil2" points="21657.82,62257.18 20770.61,60734.99 21088.1,60550.02 21603.02,61433.25 22443.7,59416.7 22782.87,59557.94 "/>
  <polygon class="fil2" points="22646.21,55853.63 22390.38,55595.21 21660.4,56318.69 20927.84,55597.93 20672.96,55857.09 21402.2,56574.38 20675.46,57294.77 20931.31,57552.82 21661.28,56829.33 22393.84,57550.17 22648.72,57291 21919.48,56573.64 "/>
  <polygon class="fil17" points="9877.59,67838 9877.59,67838 10880.3,67836.11 10880.3,67836.11 "/>
  <path class="fil17" d="M5331.27 67173.56l0 0 -0.59 -364.57 0 0 0.59 364.57zm-11.06 -6136.79l-0.59 -364.54 0 0 0.59 364.54 0 0z"/>
  <polygon class="fil5" points="11063.04,44376.87 11063.04,43008.08 10517.52,43008.08 10517.52,42888.15 11780.49,42888.15 11780.49,43008.08 11234.95,43008.08 11234.95,44376.87 "/>
  <polygon class="fil5" points="13174.28,44257.03 13174.28,44376.87 12079.39,44376.87 12079.39,42888.15 13135.64,42888.15 13135.64,43008.08 12250.12,43008.08 12250.12,43529.42 12891.16,43529.42 12891.16,43649.25 12250.12,43649.25 12250.12,44257.03 "/>
  <path class="fil5" d="M13348.7 44020.73l148.17 -49.49c49.86,106.14 113.57,184.61 191.24,235.2 77.65,50.59 172.94,75.74 285.85,75.74 116.22,0 209.81,-26.26 280.84,-79.58 71.02,-52.88 106.56,-122.5 106.56,-209.3 0,-68.89 -23.3,-125.96 -69.77,-170.44 -46.52,-44.54 -125.37,-85.25 -236.66,-122.2 -60.62,-19.4 -141,-42.99 -241.09,-70.36 -100,-27.8 -164.16,-48.38 -192.41,-61.65 -88.87,-41.52 -151.99,-85.63 -189.24,-132.83 -37.39,-46.82 -56.13,-105.02 -56.13,-173.9 0,-123.67 46.91,-220.73 140.8,-291.54 93.8,-70.79 222.94,-106.2 387.33,-106.2 146.18,0 266.76,28.99 361.89,87.18 95.07,57.82 167.48,146.91 217.34,267.12l-144.55 37.32c-45.65,-92.85 -104.35,-161.36 -176.19,-205.47 -71.91,-44.17 -160.48,-66.22 -265.94,-66.22 -102.14,0 -184.97,23.6 -248.54,71.16 -63.5,47.94 -95.28,109.97 -95.28,186.45 0,57.52 20.57,106.19 61.65,145.72 41.15,39.6 104.87,71.99 191.24,96.69 33.18,9.88 81.34,23.97 144.47,41.08 180.98,49.92 297.73,89.09 350.02,118 83.86,44.1 144.62,92.85 182.45,145.36 37.77,52.88 56.72,114.97 56.72,186.88 0,130.09 -50.89,233.64 -152.58,310.93 -101.78,77.22 -239.4,115.64 -412.93,115.64 -156.14,0 -284.6,-30.83 -385.5,-92.48 -100.89,-61.66 -180.9,-157.9 -239.76,-288.81z"/>
  <polygon class="fil5" points="15245.62,44376.87 15245.62,43008.08 14700.1,43008.08 14700.1,42888.15 15963.07,42888.15 15963.07,43008.08 15417.54,43008.08 15417.54,44376.87 "/>
  <polygon class="fil5" points="16289.48,44376.87 16460.11,44376.87 16460.11,42888.16 16289.48,42888.16 "/>
  <polygon class="fil5" points="17146.46,42995.91 17146.46,44376.87 16980.74,44376.87 16980.74,42888.15 17258.48,42888.15 18141.64,44144.41 18141.64,42888.15 18307.28,42888.15 18307.28,44376.87 18125.42,44376.87 "/>
  <path class="fil5" d="M19870.42 44209.83c-61.44,65.85 -134.08,114.98 -217.94,147.28 -83.93,32.75 -181.5,49.11 -292.71,49.11 -228.4,0 -402.31,-66.22 -521.93,-197.86 -119.55,-132.09 -179.36,-323.1 -179.36,-573.12 0,-247.8 61.07,-438.81 183.12,-573.11 122.06,-134.74 294.78,-202.07 518.17,-202.07 165.2,0 297.28,35.76 396.11,106.86 98.75,71.24 171.91,183.05 219.18,336.08l-160.62 26.99c-39.9,-119.85 -96.99,-208.49 -171.32,-265.57 -74.27,-57.09 -169.63,-85.62 -285.86,-85.62 -166.09,0 -294.4,55.53 -384.9,166.67 -90.49,111.07 -135.7,268.67 -135.7,472.59 0,219.99 45.87,386.3 137.55,498.18 91.82,111.88 228.18,168.22 409.23,168.22 136.14,0 245.81,-32 328.86,-95.13 82.96,-63.58 124.56,-147.28 124.56,-251.19l0 -159.08 -458.43 0 0 -111.88 642.8 0 0 709.69 -150.81 0 0 -167.04z"/>
  <path class="fil18" d="M42719.77 41878.97l0 0c5.69,-29.73 11.8,-59.38 17.49,-89.02 -5.69,29.64 -11.8,59.29 -17.49,89.02zm38.43 -192.93c16,-82.24 32.38,-163.66 47.93,-242.43 78.77,-399.57 143.52,-726.43 143.52,-726.43l0 0c0,0 -64.75,326.86 -143.52,726.43 -15.55,78.77 -31.93,160.19 -47.93,242.43zm-937.66 -825.42c0.73,-6.11 1.85,-11.8 3.02,-17.55 10.26,-55.17 16.38,-89.75 17.93,-96.98 -1.55,7.23 -7.67,41.81 -17.93,96.98 -1.17,5.75 -1.91,11.44 -3.02,17.55z"/>
  <path class="fil9" d="M65233.65 30078.52l-4455.16 0 0 -5520.47 5520.32 0 0 4839.55c-367.56,198.97 -723.4,425.82 -1065.16,680.92z"/>
  <polygon class="fil9" points="67275.56,25308.15 78044.82,25308.15 78044.82,24558.04 67275.56,24558.04 "/>
  <polygon class="fil9" points="67275.56,26898.28 74543.37,26898.28 74543.37,26148.16 67275.56,26148.16 "/>
  <path class="fil9" d="M76949.35 28488.4l-4845.37 0c-533.95,-98.38 -1073.8,-147.57 -1614.39,-147.57 -539.85,0 -1079.7,49.19 -1612.18,147.57l-1601.85 0 0 -750.11 9673.79 0 0 750.11z"/>
  <path class="fil19" d="M76216.28 42721.48c166.67,-170.06 321.55,-345.89 466.1,-525.1l3090.85 3018.51c190.28,185.34 124.64,560.58 -146.02,837.58 -270.67,277.45 -643.83,351.64 -834.11,165.94l-3090.86 -3018.51c175.52,-148.46 348.1,-307.91 514.04,-478.42z"/>
  <path class="fil20" d="M70592.1 45002.2c-92.93,0 -185.85,-1.54 -278.04,-5.02l0 -889.35 859.19 872.98c-193.96,14.08 -387.19,21.39 -581.15,21.39zm-2895.42 -552.24c-354.74,-140.79 -702.11,-308.2 -1037.44,-502.68l0 -3554.39 1037.44 1054.93 0 3002.14zm-3654.54 -2959.14c-878.28,-1315.56 -1319.39,-2837.46 -1319.39,-4357.75 0,-236.66 10.7,-473.4 32.02,-708.95l1287.37 1308.32 0 3758.38z"/>
  <polygon class="fil21" points="64042.14,41490.82 64042.14,37732.44 65111.52,38820.1 64042.14,38820.1 "/>
  <path class="fil22" d="M70314.06 44997.18c-133.48,-4.5 -266.23,-12.9 -398.98,-24.33 -754.47,-65.05 -1503.03,-239.32 -2218.4,-522.89l0 -3002.14 2617.38 2660.01 0 889.35z"/>
  <path class="fil22" d="M66659.24 43947.28c-517.95,-300.24 -1009.64,-664.04 -1463.28,-1092.17 -23.97,-22.86 -48.3,-45.72 -72.27,-68.88 0,-0.36 0.36,0 0,-0.36 -8.77,-8.42 -17.92,-17.55 -26.99,-25.97l0 0c-402.68,-393.45 -754.32,-818.92 -1054.56,-1269.08l0 -2670.72 1069.38 0 1547.72 1572.79 0 3554.39z"/>
  <path class="fil20" d="M73969.12 44236.08l0 -16.74c381.27,-191.38 746.34,-413.66 1090.01,-664.05l0 41.9c-348.83,244.7 -713.89,457.76 -1090.01,638.89zm1090.01 -2780.3l-1090.01 -1108.16 0 -2621.66 1090.01 1108.23 0 2621.59zm2617.39 -1014.95l0 -178.1c293.53,-694.87 492.65,-1444.54 577.46,-2234.18 25.81,-243.96 40.57,-486.01 44.25,-726.51l-621.71 -631.67 0 -1027.55 -1010.37 0 -2697.03 -2741.07 0 -1647.65 -1621.04 0 -1862.18 -1892.58c2.95,0 5.9,0 9.59,0 0,0 0.73,0 0.73,0 0,0 0.74,0 0.74,0 1966.92,0.23 3939.72,737.51 5467.82,2216.19l0.75 0.52c3.68,4.21 7.36,8.04 12.53,12.24 4.42,4.35 8.85,9.08 13.28,13.42 1580.46,1543.23 2374.01,3586.46 2374.74,5626.98 0,1096.81 -230.09,2192.81 -689.56,3209.96zm-6324.8 -2753.3l-6142.4 -6243.74c-1006.62,936.33 -1772.66,2140.59 -2179.46,3516.39 344.04,-1189.59 977.33,-2313.02 1901.64,-3259.6 862.35,-882.79 1884.52,-1516.3 2976.84,-1899.43 -415.95,148.31 -817.15,331.43 -1198.51,546.12l4641.89 4718.45 0 2621.81z"/>
  <path class="fil21" d="M71351.72 37687.53l0 -2621.81 843.7 857.19 -843.7 0 0 1764.62zm2617.4 -4785.78l-1621.04 -1647.65 1621.04 0 0 1647.65z"/>
  <path class="fil21" d="M75059.13 41455.78l0 -2621.59 458.73 465.81 -458.73 0 0 2155.78zm2617.39 -4785.41l-1010.37 -1027.55 1010.37 0 0 1027.55z"/>
  <path class="fil22" d="M73154.18 44571.79c278.76,-101.99 550.91,-219.99 814.94,-352.45l0 16.74c-266.25,127.89 -538.39,239.76 -814.94,335.71zm814.94 -4224.17l-2617.4 -2660.09 0 -1764.62 843.7 0 1773.7 1803.05 0 2621.66z"/>
  <path class="fil22" d="M75059.13 43597.19l0 -41.9c398.26,-289.24 768.48,-615.74 1107,-974.6l-1107 -1124.91 0 -2155.78 458.73 0 1753.77 1782.83c149.72,-263.73 285.41,-537.34 404.89,-820.1l0 178.1c-362.85,802.62 -869.51,1556.13 -1519.98,2222.46l0 0c-7.38,7.6 -14.76,15.64 -22.87,23.6 -2.21,2.29 -5.16,4.94 -7.37,7.23 -334.09,338.29 -691.04,638.89 -1067.17,903.07z"/>
  <path class="fil23" d="M71173.25 44980.81l-859.19 -872.98 0 -6674.89 -2617.38 0 0 4014.88 -1037.44 -1054.93 0 -5373.93 -2617.1 0 0 2713.48 -1287.37 -1308.32c44.46,-493.98 136.21,-984.12 275.09,-1463.94 406.8,-1375.8 1172.84,-2580.06 2179.46,-3516.39l6142.4 6243.74 0 7277.72c-59.74,6.12 -119.47,11.06 -178.47,15.56zm2795.87 -761.47l0 -3871.72 1090.01 1108.16 0 2099.51c-343.67,250.39 -708.74,472.67 -1090.01,664.05z"/>
  <polygon class="fil24" points="67696.68,41447.82 67696.68,37432.94 70314.06,37432.94 70314.06,40677.57 67696.68,40677.57 "/>
  <polygon class="fil24" points="66659.24,38820.1 65111.52,38820.1 64042.14,37732.44 64042.14,35018.96 66659.24,35018.96 "/>
  <path class="fil25" d="M71351.72 44965.25l0 -7277.72 2617.4 2660.09 0 3871.72c-264.03,132.46 -536.18,250.46 -814.94,352.45 -585.58,202.82 -1191.06,334.09 -1802.46,393.46z"/>
  <polygon class="fil25" points="70314.06,44107.83 67696.68,41447.82 67696.68,40677.57 70314.06,40677.57 "/>
  <path class="fil25" d="M75059.13 43555.29l0 -2099.51 1107 1124.91c-338.52,358.86 -708.74,685.36 -1107,974.6z"/>
  <polygon class="fil25" points="66659.24,40392.89 65111.52,38820.1 66659.24,38820.1 "/>
  <path class="fil23" d="M77676.52 40262.73l0 -3592.36 621.71 631.67c-3.68,240.5 -18.44,482.55 -44.25,726.51 -84.81,789.64 -283.93,1539.31 -577.46,2234.18zm-2617.39 -1428.54l-1090.01 -1108.23 0 -4824.21 2697.03 2741.07 -1607.02 0 0 3191.37zm-3707.41 -3768.47l-4641.89 -4718.45c381.36,-214.69 782.56,-397.81 1198.51,-546.12 831.16,-291.91 1703.63,-438.37 2577.56,-439.63l1862.18 1892.58 -996.36 0 0 3811.62z"/>
  <polygon class="fil24" points="73969.12,35922.91 72195.42,35922.91 71351.72,35065.72 71351.72,31254.1 72348.08,31254.1 73969.12,32901.75 "/>
  <polygon class="fil24" points="77676.52,39300 75517.86,39300 75059.13,38834.19 75059.13,35642.82 76666.15,35642.82 77676.52,36670.37 "/>
  <polygon class="fil25" points="73969.12,37725.96 72195.42,35922.91 73969.12,35922.91 "/>
  <path class="fil25" d="M77271.63 41082.83l-1753.77 -1782.83 2158.66 0 0 962.73c-119.48,282.76 -255.17,556.37 -404.89,820.1z"/>
  <path class="fil5" d="M65096.7 42759.9c-3099.64,-3027.29 -3173.47,-7978.71 -165.2,-11059.32 3008.55,-3080.53 7960.12,-3123.82 11059.84,-96.69 3099.7,3027.22 3174.19,7978.42 165.2,11059.4 -3008.26,3080.61 -7959.84,3123.53 -11059.84,96.61zm-710.95 728.06c3504.15,3422.3 9102.51,3373.18 12503.86,-109.59 3401.35,-3482.47 3317.27,-9080.1 -186.59,-12502.46 -3504.59,-3422.37 -9102.95,-3373.4 -12504.09,109.3 -3400.97,3482.62 -3317.27,9080.46 186.82,12502.75z"/>
  <path class="fil26" d="M70595.05 45486.22c-2101.14,0 -4208.69,-792.29 -5835.54,-2381.09 -3291.83,-3214.54 -3370.22,-8472.62 -175.45,-11743.88 1615.86,-1654.43 3759.4,-2483.89 5909.22,-2483.89 2101.13,0 4208.91,792.37 5835.09,2381.24 3292.2,3214.69 3370.38,8472.55 175.53,11743.79 -1615.13,1654.58 -3759.04,2483.83 -5908.85,2483.83zm-7872.3 -8353.15c0,2040.16 793.85,4083.32 2373.95,5626.83 1532.44,1496.39 3516.68,2242.3 5495.4,2242.3 2024.44,0 4042.97,-781.31 5564.44,-2338.91 1474.99,-1510.4 2209.54,-3470.23 2209.54,-5432.42l0 0c-0.73,-2040.52 -794.28,-4083.75 -2374.74,-5626.98 -4.43,-4.34 -8.86,-9.07 -13.28,-13.42 -5.17,-4.2 -8.85,-8.03 -12.53,-12.24l-0.75 -0.52c-1528.83,-1478.91 -3500.9,-2216.11 -5467.82,-2216.19 0,0 -0.74,0 -0.74,0l0 0c-2.94,0 -6.63,0 -10.32,0 -873.93,1.26 -1746.4,147.72 -2577.56,439.63 -1092.32,383.13 -2114.49,1016.64 -2976.84,1899.43 -924.31,946.58 -1557.6,2070.01 -1901.64,3259.6 -138.88,479.82 -230.63,969.96 -275.09,1463.94 -21.32,235.55 -32.02,472.29 -32.02,708.95l0 0z"/>
  <path class="fil5" d="M89374 55968.89l480.11 -498.11c480.11,-498.18 466.1,-1290.84 -32.44,-1770.73l-8923.75 -8652.57c-498.55,-479.89 -1291.36,-465.44 -1770.74,32.3l-480.84 498.56c-480.11,497.74 -465.37,1290.47 32.44,1770.66l8924.48 8652.27c497.82,480.25 1290.63,465.8 1770.74,-32.38z"/>
 </g>
</svg>
