<?xml version="1.0" encoding="UTF-8"?>
<!DOCTYPE svg PUBLIC "-//W3C//DTD SVG 1.1//EN" "http://www.w3.org/Graphics/SVG/1.1/DTD/svg11.dtd">
<!-- Creator: CorelDRAW 2020 (64-Bit) -->
<svg xmlns="http://www.w3.org/2000/svg" xml:space="preserve" width="1308.81mm" height="1308.81mm" version="1.1" style="shape-rendering:geometricPrecision; text-rendering:geometricPrecision; image-rendering:optimizeQuality; fill-rule:evenodd; clip-rule:evenodd"
viewBox="0 0 130880.56 130880.56"
 xmlns:xlink="http://www.w3.org/1999/xlink"
 xmlns:xodm="http://www.corel.com/coreldraw/odm/2003">
 <defs>
  <style type="text/css">
   <![CDATA[
    .fil19 {fill:#EA556F}
    .fil20 {fill:#CB5499}
    .fil23 {fill:#A79ECD}
    .fil3 {fill:#7D97F4;fill-rule:nonzero}
    .fil10 {fill:#91B3FA;fill-rule:nonzero}
    .fil33 {fill:#BDD0FB;fill-rule:nonzero}
    .fil9 {fill:white;fill-rule:nonzero}
    .fil36 {fill:url(#id1)}
    .fil26 {fill:url(#id2)}
    .fil39 {fill:url(#id3)}
    .fil29 {fill:url(#id4)}
    .fil24 {fill:url(#id5)}
    .fil38 {fill:url(#id6)}
    .fil16 {fill:url(#id7)}
    .fil35 {fill:url(#id8)}
    .fil32 {fill:url(#id9)}
    .fil34 {fill:url(#id10)}
    .fil1 {fill:url(#id11)}
    .fil13 {fill:url(#id12)}
    .fil5 {fill:url(#id13)}
    .fil6 {fill:url(#id14)}
    .fil7 {fill:url(#id15)}
    .fil4 {fill:url(#id16)}
    .fil43 {fill:url(#id17)}
    .fil27 {fill:url(#id18)}
    .fil41 {fill:url(#id19)}
    .fil42 {fill:url(#id20)}
    .fil0 {fill:url(#id21)}
    .fil31 {fill:url(#id22)}
    .fil25 {fill:url(#id23)}
    .fil14 {fill:url(#id24)}
    .fil37 {fill:url(#id25)}
    .fil17 {fill:url(#id26)}
    .fil28 {fill:url(#id27)}
    .fil40 {fill:url(#id28)}
    .fil15 {fill:url(#id29)}
    .fil21 {fill:url(#id30)}
    .fil22 {fill:url(#id31)}
    .fil2 {fill:url(#id32)}
    .fil18 {fill:url(#id33)}
    .fil11 {fill:url(#id34)}
    .fil30 {fill:url(#id35)}
    .fil8 {fill:url(#id36)}
    .fil12 {fill:url(#id37)}
   ]]>
  </style>
   <clipPath id="id0">
    <path d="M113015.12 84996.27c-3.37,0 -6.73,0 -8.42,0l-5287.66 -162.16c-158.24,-6.01 -286.19,-136.15 -286.19,-296.31l0 -6224.43c0,-164.17 131.31,-296.31 296.29,-296.31l5285.98 0c163.29,0 296.29,132.14 296.29,296.31l0 6386.6c0,164.17 -133,296.3 -296.29,296.3l0 0z"/>
   </clipPath>
  <linearGradient id="id1" gradientUnits="userSpaceOnUse" x1="106099.03" y1="126792.04" x2="98005.23" y2="126792.04">
   <stop offset="0" style="stop-opacity:1; stop-color:#09005D"/>
   <stop offset="1" style="stop-opacity:1; stop-color:#1A0F91"/>
  </linearGradient>
  <linearGradient id="id2" gradientUnits="userSpaceOnUse" x1="122200.65" y1="88088.03" x2="114702.18" y2="88088.03">
   <stop offset="0" style="stop-opacity:1; stop-color:#FEBBBA"/>
   <stop offset="1" style="stop-opacity:1; stop-color:#FF928E"/>
  </linearGradient>
  <linearGradient id="id3" gradientUnits="userSpaceOnUse" xlink:href="#id1" x1="114878.41" y1="64901.23" x2="104355.19" y2="130516.2">
  </linearGradient>
  <linearGradient id="id4" gradientUnits="userSpaceOnUse" xlink:href="#id2" x1="89997.88" y1="72548.14" x2="85299.27" y2="72548.14">
  </linearGradient>
  <linearGradient id="id5" gradientUnits="userSpaceOnUse" x1="43768.35" y1="74074.18" x2="47675.92" y2="90164.27">
   <stop offset="0" style="stop-opacity:1; stop-color:#FFDEDD"/>
   <stop offset="1" style="stop-opacity:1; stop-color:#FFD4D0"/>
  </linearGradient>
  <linearGradient id="id6" gradientUnits="userSpaceOnUse" xlink:href="#id1" x1="110876.15" y1="92756.18" x2="113723.39" y2="97846.8">
  </linearGradient>
  <linearGradient id="id7" gradientUnits="userSpaceOnUse" xlink:href="#id1" x1="36857.46" y1="23279.97" x2="36662.33" y2="28848.11">
  </linearGradient>
  <linearGradient id="id8" gradientUnits="userSpaceOnUse" xlink:href="#id1" x1="114999.48" y1="126629.52" x2="109503.44" y2="126629.52">
  </linearGradient>
  <linearGradient id="id9" gradientUnits="userSpaceOnUse" xlink:href="#id2" x1="110383.27" y1="62120.49" x2="116108.21" y2="59714.24">
  </linearGradient>
  <linearGradient id="id10" gradientUnits="userSpaceOnUse" xlink:href="#id2" x1="85043.34" y1="71496.83" x2="88282.45" y2="71496.83">
  </linearGradient>
  <linearGradient id="id11" gradientUnits="userSpaceOnUse" x1="12256.16" y1="16018.04" x2="95206.26" y2="92927.08">
   <stop offset="0" style="stop-opacity:1; stop-color:#4F52FF"/>
   <stop offset="1" style="stop-opacity:1; stop-color:#4042E2"/>
  </linearGradient>
  <linearGradient id="id12" gradientUnits="userSpaceOnUse" xlink:href="#id11" x1="-102026.02" y1="-196636.59" x2="-99593.67" y2="-192563.26">
  </linearGradient>
  <linearGradient id="id13" gradientUnits="userSpaceOnUse" x1="12264.19" y1="16029.48" x2="95202.69" y2="92922.04">
   <stop offset="0" style="stop-opacity:1; stop-color:#6063FF"/>
   <stop offset="1" style="stop-opacity:1; stop-color:#4E50E8"/>
  </linearGradient>
  <linearGradient id="id14" gradientUnits="userSpaceOnUse" xlink:href="#id13" x1="12264.19" y1="16022.34" x2="95202.69" y2="92925.34">
  </linearGradient>
  <linearGradient id="id15" gradientUnits="userSpaceOnUse" xlink:href="#id13" x1="12264.19" y1="16033.12" x2="95202.69" y2="92891.31">
  </linearGradient>
  <linearGradient id="id16" gradientUnits="userSpaceOnUse" xlink:href="#id13" x1="12264.19" y1="16024.74" x2="95202.69" y2="92884.57">
  </linearGradient>
  <linearGradient id="id17" gradientUnits="userSpaceOnUse" xlink:href="#id11" x1="115203.43" y1="69965.76" x2="113965.74" y2="73472.58">
  </linearGradient>
  <linearGradient id="id18" gradientUnits="userSpaceOnUse" xlink:href="#id2" x1="113881.06" y1="58415.52" x2="111482.99" y2="66424.35">
  </linearGradient>
  <linearGradient id="id19" gradientUnits="userSpaceOnUse" xlink:href="#id1" x1="115644.99" y1="64936.38" x2="104278.71" y2="136844">
  </linearGradient>
  <linearGradient id="id20" gradientUnits="userSpaceOnUse" xlink:href="#id11" x1="109479.08" y1="69889.43" x2="108241.39" y2="73396.2">
  </linearGradient>
  <linearGradient id="id21" gradientUnits="userSpaceOnUse" xlink:href="#id1" x1="30454.49" y1="-17060.34" x2="110098.61" y2="175875.81">
  </linearGradient>
  <linearGradient id="id22" gradientUnits="userSpaceOnUse" xlink:href="#id1" x1="118575.78" y1="53323.4" x2="110495.76" y2="59894.78">
  </linearGradient>
  <linearGradient id="id23" gradientUnits="userSpaceOnUse" xlink:href="#id5" x1="43855.88" y1="74074.16" x2="47798.3" y2="90164.27">
  </linearGradient>
  <linearGradient id="id24" gradientUnits="userSpaceOnUse" xlink:href="#id11" x1="-99660.53" y1="-198058.23" x2="-97228.06" y2="-193985">
  </linearGradient>
  <linearGradient id="id25" gradientUnits="userSpaceOnUse" xlink:href="#id1" x1="117481.14" y1="65440.89" x2="107075.87" y2="130763.46">
  </linearGradient>
  <linearGradient id="id26" gradientUnits="userSpaceOnUse" xlink:href="#id1" x1="111144.85" y1="-183460.28" x2="108929.73" y2="-177491.11">
  </linearGradient>
  <linearGradient id="id27" gradientUnits="userSpaceOnUse" x1="184882.59" y1="203004.06" x2="242008.34" y2="316067.21">
   <stop offset="0" style="stop-opacity:1; stop-color:#E1473D"/>
   <stop offset="1" style="stop-opacity:1; stop-color:#E9605A"/>
  </linearGradient>
  <linearGradient id="id28" gradientUnits="userSpaceOnUse" xlink:href="#id1" x1="108344.25" y1="63842.14" x2="97621.48" y2="130949.9">
  </linearGradient>
  <linearGradient id="id29" gradientUnits="userSpaceOnUse" xlink:href="#id1" x1="26321.37" y1="32762.7" x2="30287.96" y2="45682.55">
  </linearGradient>
  <linearGradient id="id30" gradientUnits="userSpaceOnUse" xlink:href="#id5" x1="65376.63" y1="44323.54" x2="75583.16" y2="78979.12">
  </linearGradient>
  <linearGradient id="id31" gradientUnits="userSpaceOnUse" xlink:href="#id5" x1="65756.88" y1="44323.56" x2="75883.04" y2="78979.12">
  </linearGradient>
  <linearGradient id="id32" gradientUnits="userSpaceOnUse" xlink:href="#id1" x1="50188.99" y1="-24856.76" x2="130090.56" y2="168703.76">
  </linearGradient>
  <linearGradient id="id33" gradientUnits="userSpaceOnUse" xlink:href="#id1" x1="117188.57" y1="-174422.12" x2="113828.02" y2="-167117.19">
  </linearGradient>
  <linearGradient id="id34" gradientUnits="userSpaceOnUse" xlink:href="#id11" x1="36052.69" y1="31025.59" x2="40522.36" y2="48422.61">
  </linearGradient>
  <linearGradient id="id35" gradientUnits="userSpaceOnUse" xlink:href="#id2" x1="108750.93" y1="60913.2" x2="115199.05" y2="57076.56">
  </linearGradient>
  <linearGradient id="id36" gradientUnits="userSpaceOnUse" xlink:href="#id13" x1="12256.16" y1="16018.04" x2="95206.26" y2="92927.08">
  </linearGradient>
  <linearGradient id="id37" gradientUnits="userSpaceOnUse" xlink:href="#id11" x1="39831.44" y1="37517.25" x2="27471.58" y2="22467.09">
  </linearGradient>
 </defs>
 <g id="Layer_x0020_1">
  <metadata id="CorelCorpID_0Corel-Layer"/>
  <path class="fil0" d="M97399.6 124124.17l-67122.42 0c-748.25,0 -1354.35,-606.1 -1354.35,-1354.35l0 -117917.28c0,-748.26 606.1,-1353.65 1354.35,-1353.65l67122.42 0c747.08,0 1353.64,605.39 1353.64,1353.65l0 117917.28c0,748.25 -606.56,1354.35 -1353.64,1354.35zm-63929.88 -116877c-747.79,0 -1353.88,606.56 -1353.88,1354.82l0 110479.86c0,747.78 606.09,1354.35 1353.88,1354.35l60733.13 0c748.25,0 1353.64,-606.57 1353.64,-1354.35l0 -110479.86c0,-748.26 -605.39,-1354.82 -1353.64,-1354.82l-60733.13 0z"/>
  <path class="fil1" d="M94202.85 120436.2l-60733.13 0c-747.79,0 -1353.88,-606.57 -1353.88,-1354.35l0 -110479.86c0,-748.26 606.09,-1354.82 1353.88,-1354.82l60733.13 0c748.25,0 1353.64,606.56 1353.64,1354.82l0 110479.86c0,747.78 -605.39,1354.35 -1353.64,1354.35zm-61421.66 -31006.28l62029.39 14967.6 0 -22752.91 -28342.18 -6838.83 1076.46 -1151.53c834.91,160.19 1688.2,242.62 2549.44,242.62 603.87,0 1211.26,-40.74 1819.23,-123.65l1988.31 2371.11c49.06,58.89 121.19,90.74 194.84,90.74 30.57,0 61.13,-5.04 90.75,-16.63l3468.54 -1328.34c101.41,-38.53 166.75,-137.59 163.47,-245.92l-13.94 -409.37 17005.08 4103.79 0 -5908.6 -14274.14 -3444.41c119.91,-144.49 236.07,-291.69 349.54,-440.75l3084.69 270.84c7.38,0.35 14.87,0.94 22.25,0.94 99.54,0 191.21,-58.44 232.44,-150.94l1513.12 -3391.71c44.04,-99.07 20.37,-215.23 -58.78,-289.36l-2261.85 -2114.66c272.72,-1420.15 320.39,-2893.93 119.44,-4368.19l2371.1 -1988.18c82.91,-69.92 112.53,-184.79 73.66,-286.08l-1328 -3468.06c-37.94,-98.71 -132.33,-163.47 -237.94,-163.47 -2.81,0 -5.62,0 -8.32,0l-3092.53 104.21c-835.25,-1231.73 -1855.41,-2296.15 -3006.94,-3171.34l270.85 -3084.22c7.95,-90.27 -32.33,-176.35 -103.64,-228.22l16335.05 3941.72 0 -3439.72 -62029.39 -14967.47 0 3439.01 41523.34 10019.89 -1670.5 1787.72c-834.9,-160.19 -1688.66,-243.09 -2549.44,-243.09 -603.75,0 -1211.26,40.76 -1819.23,123.65l-1988.18 -2371.21c-49.08,-58.79 -121.32,-90.75 -194.97,-90.75 -30.56,0 -61.13,5.62 -90.75,16.74l-3468.53 1328.36c-101.41,38.86 -166.64,137.58 -163.36,245.9l104.57 3093c-1231.63,834.79 -2296.62,1854.82 -3171.23,3006.36l-3084.69 -270.85c-7.37,-0.47 -14.75,-0.94 -22.13,-0.94 -99.52,0 -191.33,58.31 -232.43,150.93l-1513.13 3391.61c-44.03,99.19 -20.97,215.34 58.66,289.46l2261.96 2114.54c-272.71,1420.16 -320.36,2893.95 -119.43,4368.19l-991 831.16 -22869.53 -5518.79 0 5908.6 27896.17 6731.46c379.27,364.4 777.41,704.8 1193.21,1020.61l-221.31 2520.17 -28868.07 -6965.76 0 22753.02zm0 -66546.77l62029.39 14968.29 0 -7335.89 -62029.39 -14968.53 0 7336.13z"/>
  <path class="fil2" d="M82746.42 10740.18l-37406.68 0c-284.32,0 -516.75,-231.85 -516.75,-516.4l0 -3140.54 38439.71 0 0 3140.54c0,284.55 -232.44,516.4 -516.28,516.4z"/>
  <path class="fil3" d="M76018.25 8912.3l-23056.2 0c-103.74,0 -188.98,-85.49 -188.98,-188.53l0 -960.19c0,-103.05 85.24,-188.53 188.98,-188.53l23056.2 0c103.75,0 188.88,85.48 188.88,188.53l0 960.19c0,103.04 -85.13,188.53 -188.88,188.53z"/>
  <polygon class="fil4" points="34790.1,16031.79 34790.1,16031.8 34790.14,16031.8 35129.69,16113.74 35129.69,16113.77 35129.81,16113.77 35469.27,16195.68 35469.27,16195.74 35469.48,16195.74 35808.86,16277.64 35808.86,16277.7 35809.15,16277.7 36148.43,16359.58 36148.43,16359.68 36148.86,16359.68 36488.01,16441.52 36488.01,16441.65 36488.52,16441.65 36827.6,16523.47 36827.6,16523.61 36828.2,16523.61 37167.18,16605.41 37167.18,16605.58 37167.86,16605.58 37506.75,16687.36 37506.75,16687.54 37507.53,16687.54 40855.73,17495.51 40855.73,17495.52 40855.78,17495.52 41195.32,17577.46 41195.32,17577.49 41195.45,17577.49 41534.9,17659.4 41534.9,17659.46 41535.11,17659.46 41874.49,17741.36 41874.49,17741.42 41874.77,17741.42 42214.07,17823.3 42214.07,17823.39 42214.45,17823.39 42553.64,17905.24 42553.64,17905.35 42554.11,17905.35 42893.23,17987.19 42893.23,17987.32 42893.78,17987.32 47260.95,19041.17 47260.95,19041.2 47261.02,19041.2 47600.53,19123.12 47600.53,19123.16 47600.7,19123.16 47940.12,19205.06 47940.12,19205.14 47940.42,19205.14 48279.7,19287.02 48279.7,19287.11 48280.08,19287.11 48619.27,19368.96 48619.27,19369.07 48619.74,19369.07 53326.59,20504.9 53326.59,20504.92 53326.67,20504.92 53666.16,20586.84 53666.16,20586.88 53666.33,20586.88 54005.74,20668.78 54005.74,20668.85 54005.99,20668.85 54345.33,20750.74 54345.33,20750.81 54345.66,20750.81 59392.22,21968.61 59392.22,21968.62 59392.24,21968.62 59731.79,22050.56 59731.79,22050.6 59731.97,22050.6 60071.37,22132.5 60071.37,22132.57 60071.64,22132.57 65457.85,23432.33 65457.85,23432.34 65457.89,23432.34 65797.43,23514.28 65797.43,23514.31 65797.55,23514.31 94810.58,30515.55 94810.58,37851.44 94810.58,37851.44 32781.19,22883.15 32781.19,15547.02 "/>
  <path class="fil5" d="M47284.37 92929.52l0 -0.02 -0.09 0 -5046.79 -1217.79 0 -0.02 -0.1 0 -4707.21 -1135.85 -339.58 -81.94 0 -0.02 -0.11 0 -339.48 -81.92 0 -0.06 -0.26 0 -4069.56 -981.98 0 -22753.02 1938.65 467.79 0 0.02 0.06 0 339.53 81.92 0 0.04 0.16 0 4367.56 1053.88 0.01 0 339.57 81.94 0 0.03 0.12 0 4707.19 1135.83 0 0.01 0.06 0 4707.24 1135.84 0.01 0 12467.91 3008.46 -49.52 563.93c-9.73,108.44 50.46,210.66 149.53,254.7l3391.59 1513.12c33.38,14.87 68.98,22.25 103.76,22.25 68.96,0 136.64,-28.22 186.18,-80.57l1037.6 -1110.31 5617.14 1355.39 0 0.01 0.04 0 4707.27 1135.84 0.01 0 339.57 81.94 0 0.03 0.12 0 4707.19 1135.81 0 0.03 0.09 0 339.49 81.91 0 0.07 0.26 0 4367.46 1053.85 0 0.01 0.08 0 339.5 81.93 0 0.04 0.19 0 339.4 81.9 0 0.08 0.34 0 339.23 81.85 0 0.11 0.46 0 3688.1 889.92 0 0.02 0.06 0 339.53 81.92 0 0.04 0.16 0 339.42 81.9 0 0.08 0.32 0 339.25 81.86 0 0.11 0.44 0 339.15 81.83 0 0.13 0.55 0 2197.36 530.22 0 22752.91 -47526.21 -11468zm-428.69 -3208.84l393.56 457.02 0 0.01 0.01 0 362.99 421.52 0 0.03 0.02 0 362.98 421.51 0 0.04 0.04 0 22.68 26.34c27.76,32.45 68.04,50.13 109.25,50.13 17.56,0 35.71,-3.28 53.28,-10.19l1952.13 -777.41c56.91,-22.72 93.45,-78.8 90.28,-140.28l-81.96 -1748.97c690.74,-481.5 1285.37,-1066.28 1771.43,-1724.25l1746.98 130.1c3.75,0.46 7.49,0.46 11.13,0.46 57.02,0 109.37,-33.72 131.97,-87l830.68 -1929.88c24.59,-56.56 10.19,-121.77 -35.13,-163.47l-162.41 -147.88 0 -0.02 -0.02 0 -655.72 -597.09 0 -0.1 -0.11 0 -476.83 -434.19c143.56,-805.28 159.72,-1639.59 34.66,-2472.15l1326.59 -1142.29c46.84,-39.81 62.53,-105.04 39.81,-162.53l-777.41 -1952.13c-21.78,-54.56 -74.59,-90.75 -133.37,-90.75 -2.23,0 -4.56,0.59 -6.91,0.59l-1748.84 81.85c-481.5,-690.76 -1066.29,-1285.26 -1724.26,-1771.45l0.59 -7.85 0 -0.08 81.96 -1100.62 0 -0.04 47.54 -638.38c4.57,-61.12 -30.09,-118.51 -86.65,-143.09l-1611.95 -693.88 0 -0.04 -0.08 0 -317.72 -136.76c-18.63,-7.85 -37.59,-12.07 -57.03,-12.07 -39.35,0 -78.7,16.63 -106.56,47.19l-1179.29 1295.56c-440.75,-78.68 -890.4,-119.44 -1343.69,-119.44 -374.47,0 -751.41,27.76 -1128.35,84.32l-281.85 -327.33 0 -0.08 -0.06 0 -362.94 -421.5 0 -0.05 -0.04 0 -362.96 -421.52 0 -0.03 -0.02 0 -134.4 -156.1c-27.76,-32.43 -68.04,-49.99 -109.26,-49.99 -17.56,0 -35.71,3.28 -52.81,10.19l-874.38 348.13 -0.1 0 0 0.03 -1078.11 429.25c-56.91,22.72 -93.1,79.15 -90.29,140.28l81.97 1748.85c-690.75,481.5 -1285.38,1066.28 -1771.56,1724.37l-1746.97 -130.22c-3.63,-0.47 -7.38,-0.47 -10.66,-0.47 -57.38,0 -109.25,33.85 -132.44,87.13l-486.17 1129.63 -0.01 0 0 0.04 -344.39 800.21c-24.58,56.44 -10.3,122.24 35.14,163.46l1295.56 1179.28c-144.04,805.16 -159.72,1639.6 -35.14,2472.04l-1326.59 1142.29c-46.37,40.28 -62.52,105.15 -39.8,162.53l309.83 778.01 0 0.1 0.04 0 467.52 1174.02c21.79,55.03 74.95,90.75 133.38,90.75 2.23,0 4.57,0 6.92,-0.48l1748.83 -81.96c481.51,690.87 1066.3,1285.37 1724.27,1771.57l-130.1 1746.97c-4.68,61.12 30.09,118.96 86.54,143.09l1929.98 830.68c18.51,7.85 37.95,11.95 56.91,11.95 39.83,0 78.7,-16.63 106.45,-47.19l614.02 -674.48 0.03 0 0 -0.05 565.35 -621.03c440.76,78.68 890.41,119.44 1343.69,119.44 374.59,0 751.41,-27.76 1128.35,-84.2l0 0z"/>
  <path class="fil6" d="M77753.05 72683.79l0 -0.4 -0.01 0 -38.29 -1132.21c1072.39,-726.47 2017.82,-1593.68 2821.69,-2565.59l6783.44 1636.88 0 0.02 0.13 0 5046.76 1217.81 0.03 0 339.54 81.94 0 0.03 0.13 0 339.46 81.91 0 0.06 0.22 0 339.36 81.88 0 0.08 0.32 0 339.27 81.86 0 0.11 0.4 0 1085.08 261.83 0 5908.6 -17005.08 -4103.79 -52.45 -1551.02zm-17075.69 -2581.91l-3228.96 -779.16 0 -0.01 -0.04 0 -5386.42 -1299.77 0 -0.01 -0.04 0 -5386.44 -1299.76 0 -0.01 -0.04 0 -13894.23 -3352.74 0 -5908.6 3683.41 888.87 0 0.02 0.06 0 339.52 81.92 0 0.04 0.15 0 5725.9 1381.76 0.01 0 339.57 81.94 0 0.02 0.09 0 12780.82 3084.22 -1379.74 1157.16c-83.27,69.9 -113.01,184.65 -74.49,286.06l113.7 296.85 0 0.12 0.04 0 1214.62 3171.1c37.93,99.06 132.43,163.46 237.59,163.46 2.69,0 5.97,0 8.78,0l2004.7 -67.55 0.35 0 0 -0.01 1087.48 -36.65c533.85,787.12 1143.22,1506.22 1813.61,2150.73l0 0z"/>
  <path class="fil7" d="M78233.14 46102.4l0 -0.06 -0.12 0 -761 -339.51 0 -0.07 -0.15 0 -760.99 -339.51 0 -0.06 -0.14 0 -760.99 -339.51 0 -0.08 -0.17 0 -760.96 -339.49 0 -0.09 -0.21 0 -150.38 -67.1c-33.37,-14.87 -68.98,-22.24 -103.74,-22.24 -68.98,0 -136.54,28.22 -186.08,80.56l-443.68 474.59 -134.66 -32.5 0 -0.05 -0.22 0 -339.36 -81.89 0 -0.08 -0.32 0 -4706.99 -1135.83 0 -0.01 -0.05 0 -339.52 -81.93 0 -0.04 -0.16 0 -339.42 -81.9 0 -0.06 -0.25 0 -5046.64 -1217.8 0 -0.01 -0.08 0 -339.51 -81.93 0 -0.04 -0.17 0 -5386.29 -1299.75 0 -0.04 -0.14 0 -339.44 -81.91 0 -0.05 -0.24 0 -5046.65 -1217.8 0 -0.01 -0.07 0 -339.52 -81.93 0 -0.04 -0.15 0 -5386.31 -1299.75 0 -0.02 -0.09 0 -5386.38 -1299.78 0 -0.01 -0.05 0 -8390.66 -2024.73 0 -3439.01 56224.9 13566.86 0.01 0 339.56 81.94 0 0.03 0.13 0 4707.17 1135.83 0 0.01 0.08 0 339.51 81.93 0 0.04 0.18 0 339.4 81.9 0 0.08 0.34 0 78.11 18.85 0 3439.72 0 0 -16335.05 -3941.72c-14.39,-10.18 -29.62,-18.96 -45.89,-26.34l-196.5 -87.66z"/>
  <path class="fil8" d="M54135.37 25448.76c0,13272.72 -10760.28,24032.42 -24033.25,24032.42 -13272.84,0 -24032.78,-10759.7 -24032.78,-24032.42 0,-13274.14 10759.94,-24033.03 24032.78,-24033.03 13272.97,0 24033.25,10758.89 24033.25,24033.03z"/>
  <path class="fil9" d="M51862.28 25559.99c0,11947.89 -9685.46,21633.47 -21632.87,21633.47 -11947.42,0 -21632.88,-9685.58 -21632.88,-21633.47 0,-11947.41 9685.46,-21632.51 21632.88,-21632.51 11947.41,0 21632.87,9685.1 21632.87,21632.51z"/>
  <path class="fil10" d="M21222.29 12121.93l-2693.46 -1318.51c-245.2,-120.62 -538.77,-78.46 -741.69,104.21l-292.86 263.48 -473.08 426.22 -303.05 272.84c-202.93,182.68 -274.35,469.57 -180.44,726l1030.8 2817.36c156.33,427.41 512.08,751.77 957.16,846.61l1820.16 398.14 11820.83 13125.41 681.16 -612.41 473.18 -426.24 643.22 -579.63 -11821.07 -13125.42 -192.15 -1864.19c-47.66,-453.17 -320.03,-853.64 -728.71,-1053.87z"/>
  <path class="fil3" d="M21038.92 12281.19l-2441.01 -1203.77c-220.96,-108.9 -500.35,-87.82 -683.15,76.11l-263.69 237.71 -426.12 384.08 -272.95 245.91c-182.79,163.93 -232.21,440.28 -147.66,670.97l935.95 2545.68c140.87,384.08 469.21,678 870.04,763.47l1647.56 358.33 10660.04 11837.35 604.7 -545.67 426.46 -384.08 666.29 -599.54 -10660.17 -11836.18 -216.28 -1640.53c-42.98,-407.5 -331.85,-729.52 -700.01,-909.84z"/>
  <path class="fil11" d="M41828.69 32602.22l-8403.94 -7501.25 -4244.06 3836.1 6467.03 8933.81c610.32,843.22 1441.47,1502.01 2401.66,1903.54l2578.13 1098.72c436.19,182.91 968.63,130.09 1320.16,-186.06l1764.53 -1589.25c318.98,-287.47 434.31,-754.69 351.89,-1176.01l-433.85 -2163.72c-236.66,-1213.59 -879.29,-2332.69 -1801.55,-3155.88z"/>
  <path class="fil12" d="M33843.84 24618.53c258.78,286.89 235.61,730.69 -51.87,989.48l-4250.97 3827.91c-287.13,259.95 -730.23,236.52 -989.12,-51.53l-51.77 -57.37c-258.9,-286.9 -235.71,-729.52 51.77,-989.47l4251.09 -3827.91c287.48,-258.79 730.68,-235.36 989.47,51.52l51.4 57.37z"/>
  <path class="fil13" d="M40159.01 38056.13c221.32,245.79 201.41,624.14 -44.5,845.45l-8.78 7.84c-245.9,221.31 -624.13,201.87 -845.44,-43.91l-8011.32 -8895.64c-221.31,-245.9 -201.4,-624.12 44.03,-845.44l8.79 -8.19c245.9,-221.31 624.7,-201.41 845.9,44.5l8011.32 8895.39z"/>
  <path class="fil14" d="M42255.52 36167.47c221.31,245.8 201.88,624.6 -43.92,845.91l-8.78 7.85c-245.9,221.32 -624.71,201.41 -845.55,-44.49l-8011.67 -8895.64c-220.84,-244.73 -201.41,-624.13 44.49,-845.44l8.78 -8.2c245.8,-221.31 624.14,-201.41 845.45,44.5l8011.2 8895.51z"/>
  <path class="fil15" d="M16279.85 32916.04c732.57,-681.5 1655.3,-882.91 2061.03,-447.31 405.63,435.6 140.75,1341.93 -591.81,2024.38 -732.55,682.55 -1655.28,883.49 -2061.03,448.25 -405.73,-435.73 -140.74,-1341.48 591.81,-2025.32zm-780.56 -747.08l-566.99 528.1c-972.96,907.51 -1266.05,2173.92 -654.57,2830.02l726.94 779.74c611.49,656.1 1895.92,452.82 2868.88,-454.22l566.99 -528.35c37.47,-35.24 74.35,-70.83 110.3,-107.37l16132.83 -16393.48 -1583.51 -1699.08 -17486 14941.6c-38.99,33.95 -77.28,67.91 -114.87,103.04z"/>
  <path class="fil16" d="M38046.22 10913.49l-3290.31 3066.77c-234.31,217.8 -353.63,532.79 -323.53,851.3l154.1 1634.67c43.55,466.04 396.36,844.27 858.43,921.56l1619.69 268.15c315.81,52.69 638.06,-44.5 872.26,-263.46l3290.31 -3066.78c495.91,-462.54 1316.41,-129.97 1334.91,548.01 44.02,1622.97 -600.59,3278.72 -1909.51,4498.88 -2366.06,2206.1 -5713.29,1878.24 -7834.38,-398.13 -2121.1,-2275.21 -2212.79,-5637.06 153.28,-7843.17 1308.91,-1218.98 3006.82,-1745.91 4621.83,-1587.84 675.18,65.58 949.3,907.5 452.92,1370.04z"/>
  <path class="fil17" d="M38335.1 11223.79l-3289.73 3065.61c-234.31,218.96 -354.2,533.97 -324.12,852.47l154.22 1634.68c43.91,466.04 396.26,844.27 858.9,920.38l1619.11 269.32c315.81,51.52 638.06,-45.67 872.37,-263.47l3290.2 -3066.77c496.37,-462.53 1316.41,-129.98 1334.9,548.01 44.51,1621.79 -600.47,3278.72 -1909.5,4498.87 -2365.95,2204.94 -5712.69,1877.07 -7833.8,-398.13 -2121.68,-2276.36 -2213.37,-5638.23 152.7,-7843.16 1309.03,-1220.16 3006.94,-1745.92 4621.94,-1589.01 675.06,66.74 949.19,908.67 452.81,1371.2z"/>
  <path class="fil18" d="M16510.42 33164.29c732.56,-682.68 1655.29,-882.91 2060.91,-448.49 405.63,435.6 140.75,1341.94 -591.81,2024.61 -732.44,682.44 -1655.16,883.38 -2060.91,448.25 -405.73,-435.37 -140.75,-1341.7 591.81,-2024.37zm-780.56 -748.26l-567.11 528.11c-972.96,907.51 -1265.94,2174.02 -654.45,2830.24l726.93 779.64c611.48,656.09 1895.81,452.81 2868.77,-454.23l567.1 -528.22c37.47,-35.24 74.24,-70.97 110.31,-107.5l16132.93 -16393.59 -1583.5 -1699.08 -17486.23 14941.58c-38.87,33.97 -77.17,67.93 -114.75,103.05z"/>
  <path class="fil19" d="M68675.21 29515.53c6365.63,1115.95 12945.55,1411.03 19306.15,101.88 2880.94,-593.69 5689.87,-1511.72 8364.37,-2736.56 4139.38,-1898.13 9028.19,-4072.63 9651.14,-9202.67 347.78,-2866.54 -1710.78,-4268.19 -4229.55,-4762.33 -850.12,-166.28 -1713.12,-275.18 -2558.57,-30.45 -795.09,229.52 -656.91,539.82 -597.19,1295.1 62.05,785.72 122.95,1571.44 183.84,2357.17 107.73,1374.72 -1943.81,2026.94 -2926.26,2597.21 -2324.38,1348.96 -4782.72,2462.55 -7349.72,3264.67 -6136,1918.05 -12664.63,1987.13 -19003.46,1256.44 -2091.94,-241.21 -3756.47,1724.85 -3181.41,3750.64 310.77,1093.68 1220.62,1912.19 2340.66,2108.9z"/>
  <path class="fil19" d="M73857.81 35817.35l-13093.45 -9204.65c-398.6,-279.86 -354.21,-884.09 81.5,-1103.05l13760.67 -6909.9c512.06,-256.45 1110.78,134.66 1081.62,706.09 -1655.87,5736.59 -1842.4,11051.63 -819.09,16018.41 -25.53,505.16 -597.79,783.86 -1011.25,493.1z"/>
  <path class="fil19" d="M61532.17 110616.9c-5963.3,2491 -12316.52,4227.79 -18809.91,4351.91 -2940.66,56.1 -5882.72,-219.91 -8760.85,-826.47 -4456.13,-939.01 -9703.61,-1983.16 -11441.32,-6849.48 -971.32,-2719.35 728.33,-4540.44 3076.37,-5577.11 1100.6,-486.17 2309.04,-912.18 3485.63,-661.24 -367.68,1096.97 -753.88,3264.78 117.09,4175.57 620.97,650.12 2656.83,981.62 3519.95,1252 2564.66,804.34 5207.65,1348.84 7888.47,1565.47 6407.8,518.16 12791.58,-851.87 18813.07,-2961.03 1987.85,-696.38 4044.53,854.81 3929.78,2957.29 -62.06,1135.37 -769.09,2134.56 -1818.28,2573.09z"/>
  <path class="fil19" d="M57454.72 117880.32l10743.55 -11862.64c327.28,-361.26 150.94,-940.89 -322.25,-1058.45l-14944.99 -3707.88c-555.63,-138.05 -1053.88,375.06 -899.19,926.94 2878.6,5230.74 4231.53,10373.52 4327.79,15444.05 136.66,487.25 755.63,633.04 1095.09,257.98z"/>
  <path class="fil20" d="M74096.68 76235.07c-73.65,0 -145.78,-31.85 -194.84,-90.74l-1988.31 -2371.11c-607.97,82.91 -1215.36,123.65 -1819.23,123.65 -861.24,0 -1714.53,-82.43 -2549.44,-242.62l-1076.46 1151.53 -1037.6 1110.31c-49.54,52.35 -117.22,80.57 -186.18,80.57 -34.78,0 -70.38,-7.38 -103.76,-22.25l-3391.59 -1513.12c-99.07,-44.04 -159.26,-146.26 -149.53,-254.7l49.52 -563.93 221.31 -2520.17c-415.8,-315.81 -813.94,-656.21 -1193.21,-1020.61 -670.39,-644.51 -1279.76,-1363.61 -1813.61,-2150.73l-3092.53 104.21c-2.81,0 -6.09,0 -8.78,0 -105.16,0 -199.66,-64.4 -237.59,-163.46l-1328.36 -3468.07c-38.52,-101.41 -8.78,-216.16 74.49,-286.06l1379.74 -1157.16 991 -831.16c-200.93,-1474.24 -153.28,-2948.03 119.43,-4368.19l-2261.96 -2114.54c-79.63,-74.12 -102.69,-190.27 -58.66,-289.46l1513.13 -3391.61c41.1,-92.62 132.91,-150.93 232.43,-150.93 7.38,0 14.76,0.47 22.13,0.94l3084.69 270.85c874.61,-1151.54 1939.6,-2171.57 3171.23,-3006.36l-104.57 -3093c-3.28,-108.32 61.95,-207.04 163.36,-245.9l3468.53 -1328.36c29.62,-11.12 60.19,-16.74 90.75,-16.74 73.65,0 145.89,31.96 194.97,90.75l1988.18 2371.21c607.97,-82.89 1215.48,-123.65 1819.23,-123.65 860.78,0 1714.54,82.9 2549.44,243.09l1670.5 -1787.72 443.68 -474.59c49.54,-52.34 117.1,-80.56 186.08,-80.56 34.76,0 70.37,7.37 103.74,22.24l3391.61 1513.14c16.27,7.38 31.5,16.16 45.89,26.34 71.31,51.87 111.59,137.95 103.64,228.22l-270.85 3084.22c1151.53,875.19 2171.69,1939.61 3006.94,3171.34l3092.53 -104.21c2.7,0 5.51,0 8.32,0 105.61,0 200,64.76 237.94,163.47l1328 3468.06c38.87,101.29 9.25,216.16 -73.66,286.08l-2371.1 1988.18c200.95,1474.26 153.28,2948.04 -119.44,4368.19l2261.85 2114.66c79.15,74.13 102.82,190.29 58.78,289.36l-1513.12 3391.71c-41.23,92.5 -132.9,150.94 -232.44,150.94 -7.38,0 -14.87,-0.59 -22.25,-0.94l-3084.69 -270.84c-113.47,149.06 -229.63,296.26 -349.54,440.75 -803.87,971.91 -1749.3,1839.12 -2821.69,2565.59l90.75 2683.63 13.94 409.37c3.28,108.33 -62.06,207.39 -163.47,245.92l-3468.54 1328.34c-29.62,11.59 -60.18,16.63 -90.75,16.63zm-5427.56 -24907.85c-58.79,9.37 -117.56,18.97 -176.35,29.27 -448.72,78.7 -894.16,191.22 -1329.4,336.54 -128.23,42.63 -255.62,88.41 -382.44,136.66 -3649.11,1397.78 -5894.67,4886.7 -5895.26,8579.83 -0.46,1089.47 194.97,2196.5 607.03,3273.08 1397.91,3649.45 4887.29,5895.15 8581.23,5895.15 1088.66,0 2195.69,-195.44 3271.7,-607.03 2289.25,-876.94 4100.15,-2592.41 5098.88,-4831.19 533.37,-1195.92 801.06,-2464.67 801.06,-3735.64 0,-1108.92 -203.28,-2219.69 -611.72,-3286.1 -594.97,-1553.4 -1597.91,-2914.2 -2900.38,-3935.17l-265.69 338.89c1240.75,972.84 2196.51,2269.81 2763.26,3750.5 389.34,1016.4 583.37,2074.85 583.37,3131.42 0,1211.71 -255.03,2420.74 -763.47,3560.68 -952,2133.16 -2677.66,3768.53 -4859.41,4603.79 -1026.12,393.09 -2080.35,579.28 -3118.53,579.28 -3519.47,0 -6845.27,-2141.01 -8177.36,-5618.78 -1724.84,-4503.8 535.71,-9571.18 5039.5,-11295.9 583.38,-223.65 1189.01,-384.78 1799.79,-478.81l-65.81 -426.47zm1415.47 5486.36c-698.25,0 -1403.41,207.02 -2016.42,638.53 -767.68,539.93 -1278.93,1346.5 -1440.05,2270.74 -161.13,924.6 47.77,1856.7 587.59,2624.38 539.93,767.23 1346.5,1278.82 2271.1,1439.48 203.75,35.72 407.49,53.28 610.31,53.28 716.75,0 1415,-219.91 2013.72,-640.87 767.56,-539.82 1278.81,-1346.39 1439.93,-2271.1 161.14,-924.13 -47.65,-1856.22 -587.58,-2623.92 -683.38,-970.97 -1772.38,-1490.52 -2878.6,-1490.52zm11.12 6595.37c-177.28,0 -356.56,-15.33 -534.78,-46.83 -811.25,-141.23 -1518.74,-589.36 -1992.4,-1263.13 -474.13,-673.19 -657.04,-1490.88 -515.82,-2302.13 141.22,-810.67 589.94,-1518.75 1263.12,-1992.41 538.06,-378.22 1156.69,-560.19 1769.23,-560.19 970.5,0 1926.25,456.09 2525.32,1307.97 474.13,673.31 657.02,1491 515.81,2302.25 -141.22,811.13 -589.83,1518.64 -1263.6,1992.29 -525.07,369.55 -1137.6,562.18 -1766.88,562.18z"/>
  <path class="fil21" d="M70097.12 63839.99c-202.82,0 -406.56,-17.56 -610.31,-53.28 -924.6,-160.66 -1731.17,-672.25 -2271.1,-1439.48 -539.82,-767.68 -748.72,-1699.78 -587.59,-2624.38 161.12,-924.24 672.37,-1730.81 1440.05,-2270.74 613.01,-431.51 1318.17,-638.53 2016.42,-638.53 1106.22,0 2195.22,519.55 2878.6,1490.52 539.93,767.7 748.72,1699.79 587.58,2623.92 -161.12,924.71 -672.37,1731.28 -1439.93,2271.1 -598.72,420.96 -1296.97,640.87 -2013.72,640.87zm-12.06 -6595.73c-612.54,0 -1231.17,181.97 -1769.23,560.19 -673.18,473.66 -1121.9,1181.74 -1263.12,1992.41 -141.22,811.25 41.69,1628.94 515.82,2302.13 473.66,673.77 1181.15,1121.9 1992.4,1263.13 178.22,31.5 357.5,46.83 534.78,46.83 629.28,0 1241.81,-192.63 1766.88,-562.18 673.77,-473.65 1122.38,-1181.16 1263.6,-1992.29 141.21,-811.25 -41.68,-1628.94 -515.81,-2302.25 -599.07,-851.88 -1554.82,-1307.97 -2525.32,-1307.97zm-1893.24 384.3l1.76 0 -1.76 0z"/>
  <path class="fil22" d="M70073.93 69577.75c-3693.94,0 -7183.32,-2245.7 -8581.23,-5895.15 -412.06,-1076.58 -607.49,-2183.61 -607.03,-3273.08 0.59,-3693.13 2246.15,-7182.05 5895.26,-8579.83 126.82,-48.25 254.21,-94.03 382.44,-136.66 435.24,-145.32 880.68,-257.84 1329.4,-336.54 58.79,-10.3 117.56,-19.9 176.35,-29.27l65.81 426.47c-610.78,94.03 -1216.41,255.16 -1799.79,478.81 -4503.79,1724.72 -6764.34,6792.1 -5039.5,11295.9 1332.09,3477.77 4657.89,5618.78 8177.36,5618.78 1038.18,0 2092.41,-186.19 3118.53,-579.28 2181.75,-835.26 3907.41,-2470.63 4859.41,-4603.79 508.44,-1139.94 763.47,-2348.97 763.47,-3560.68 0,-1056.57 -194.03,-2115.02 -583.37,-3131.42 -566.75,-1480.69 -1522.51,-2777.66 -2763.26,-3750.5l265.69 -338.89c1302.47,1020.97 2305.41,2381.77 2900.38,3935.17 408.44,1066.41 611.72,2177.18 611.72,3286.1 0,1270.97 -267.69,2539.72 -801.06,3735.64 -998.73,2238.78 -2809.63,3954.25 -5098.88,4831.19 -1076.01,411.59 -2183.04,607.03 -3271.7,607.03z"/>
  <path class="fil23" d="M48107.21 91097.28c-41.21,0 -81.49,-17.68 -109.25,-50.13l-1142.28 -1326.47c-376.94,56.44 -753.76,84.2 -1128.35,84.2 -453.28,0 -902.93,-40.76 -1343.69,-119.44l-1179.4 1295.56c-27.75,30.56 -66.62,47.19 -106.45,47.19 -18.96,0 -38.4,-4.1 -56.91,-11.95l-1929.98 -830.68c-56.45,-24.13 -91.22,-81.97 -86.54,-143.09l130.1 -1746.97c-657.97,-486.2 -1242.76,-1080.7 -1724.27,-1771.57l-1748.83 81.96c-2.35,0.48 -4.69,0.48 -6.92,0.48 -58.43,0 -111.59,-35.72 -133.38,-90.75l-777.39 -1952.13c-22.72,-57.38 -6.57,-122.25 39.8,-162.53l1326.59 -1142.29c-124.58,-832.44 -108.9,-1666.88 35.14,-2472.04l-1295.56 -1179.28c-45.44,-41.22 -59.72,-107.02 -35.14,-163.46l830.57 -1929.88c23.19,-53.28 75.06,-87.13 132.44,-87.13 3.28,0 7.03,0 10.66,0.47l1746.97 130.22c486.18,-658.09 1080.81,-1242.87 1771.56,-1724.37l-81.97 -1748.85c-2.81,-61.13 33.38,-117.56 90.29,-140.28l1952.59 -777.41c17.1,-6.91 35.25,-10.19 52.81,-10.19 41.22,0 81.5,17.56 109.26,49.99l1142.27 1326.61c376.94,-56.56 753.88,-84.32 1128.35,-84.32 453.29,0 902.94,40.76 1343.69,119.44l1179.29 -1295.56c27.86,-30.56 67.21,-47.19 106.56,-47.19 19.44,0 38.4,4.22 57.03,12.07l1929.75 830.68c56.56,24.58 91.22,81.97 86.65,143.09l-130.09 1746.97c657.97,486.19 1242.76,1080.69 1724.26,1771.45l1748.84 -81.85c2.35,0 4.68,-0.59 6.91,-0.59 58.78,0 111.59,36.19 133.37,90.75l777.41 1952.13c22.72,57.49 7.03,122.72 -39.81,162.53l-1326.59 1142.29c125.06,832.56 108.9,1666.87 -34.66,2472.15l1295.09 1179.28c45.32,41.7 59.72,106.91 35.13,163.47l-830.68 1929.88c-22.6,53.28 -74.95,87 -131.97,87 -3.64,0 -7.38,0 -11.13,-0.46l-1746.98 -130.1c-486.06,657.97 -1080.69,1242.75 -1771.43,1724.25l81.96 1748.97c3.17,61.48 -33.37,117.56 -90.28,140.28l-1952.13 777.41c-17.57,6.91 -35.72,10.19 -53.28,10.19zm-4352.85 -13838.9c-2068.28,823.78 -3330.59,2815.72 -3330.59,4917.27 0,649.18 120.37,1309.48 375.06,1948.96 522.37,1311.72 1523.78,2341.48 2820.75,2899.43 671.44,289.36 1379.88,433.85 2089.25,433.85 661.13,0 1323.2,-126 1956.22,-377.87 2068.29,-823.66 3330.47,-2815.13 3330.47,-4916.79 0,-649.65 -120.37,-1309.96 -375.06,-1948.85 -354.22,-890.4 -942.15,-1666.53 -1700.13,-2244.75l-261.12 342.63c695.43,530.57 1235.25,1243.69 1560.78,2061.38 233.85,587.12 344.51,1193.21 344.51,1789.59 0,1930.82 -1159.38,3760.23 -3059.17,4516.32 -581.15,231.5 -1189.11,347.2 -1796.15,347.2 -651.88,0 -1302.48,-132.8 -1919.22,-398.61 -1191.35,-512.53 -2110.91,-1458.56 -2590.55,-2663.36 -990.4,-2486.8 227.29,-5315.86 2714.67,-6305.81l-0.47 0c321.79,-128.34 657.04,-222.25 996.03,-279.27l-71.78 -425.07c-23.19,4.22 -46.37,7.85 -69.44,12.53 -344.97,63 -686.19,160.65 -1014.06,291.22l0 0zm1965.13 2786.45c-434.9,0 -856.69,136.17 -1215.59,395.43 -450.47,326 -746.73,807.51 -835.26,1356.69 -87.94,548.6 43.09,1099.2 368.63,1549.78 406.55,562.07 1043.56,860.66 1689.12,860.66 422.72,0 849.66,-128.22 1217.23,-394.02 450.58,-325.89 746.84,-807.51 835.25,-1356.57 88.06,-548.72 -42.51,-1099.2 -368.51,-1549.78 -325.99,-450.01 -807.49,-746.86 -1356.68,-835.26 -111.47,-17.69 -223.18,-26.93 -334.19,-26.93zm7.37 3732.47c-88.05,0 -176.46,-6.91 -264.87,-20.84 -434.79,-69.91 -816.75,-305.16 -1075.18,-662.54 -258.33,-357.03 -362.54,-793.69 -292.17,-1228.93 69.45,-434.78 304.69,-816.76 662.19,-1075.07 284.31,-206.09 619.09,-313.47 963.47,-313.47 88.06,0 176.47,6.9 265.35,21.3 435.25,69.45 817.22,304.7 1075.65,662.07 258.31,357.04 362.07,793.68 292.15,1228.82 -69.9,435.25 -305.14,816.76 -662.64,1075.19 -284.2,205.97 -619.45,313.47 -963.95,313.47z"/>
  <path class="fil24" d="M45726.39 84207.39c-645.56,0 -1282.57,-298.59 -1689.12,-860.66 -325.54,-450.58 -456.57,-1001.18 -368.63,-1549.78 88.53,-549.18 384.79,-1030.69 835.26,-1356.69 358.9,-259.26 780.69,-395.43 1215.59,-395.43 111.01,0 222.72,9.24 334.19,26.93 549.19,88.4 1030.69,385.25 1356.68,835.26 326,450.58 456.57,1001.06 368.51,1549.78 -88.41,549.06 -384.67,1030.68 -835.25,1356.57 -367.57,265.8 -794.51,394.02 -1217.23,394.02zm-6.09 -3730.94c-344.38,0 -679.16,107.38 -963.47,313.47 -357.5,258.31 -592.74,640.29 -662.19,1075.07 -70.37,435.24 33.84,871.9 292.17,1228.93 258.43,357.38 640.39,592.63 1075.18,662.54 88.41,13.93 176.82,20.84 264.87,20.84 344.5,0 679.75,-107.5 963.95,-313.47 357.5,-258.43 592.74,-639.94 662.64,-1075.19 69.92,-435.14 -33.84,-871.78 -292.15,-1228.82 -258.43,-357.37 -640.4,-592.62 -1075.65,-662.07 -88.88,-14.4 -177.29,-21.3 -265.35,-21.3z"/>
  <path class="fil25" d="M45708.83 87457.89c-709.37,0 -1417.81,-144.49 -2089.25,-433.85 -1296.97,-557.95 -2298.38,-1587.71 -2820.75,-2899.43 -254.69,-639.48 -375.06,-1299.78 -375.06,-1948.96 0,-2101.55 1262.31,-4093.49 3330.59,-4917.27l0 0c327.87,-130.57 669.09,-228.22 1014.06,-291.22 23.07,-4.68 46.25,-8.31 69.44,-12.53l71.78 425.07c-338.99,57.02 -674.24,150.93 -996.03,279.27l0.47 0c-2487.38,989.95 -3705.07,3819.01 -2714.67,6305.81 479.64,1204.8 1399.2,2150.83 2590.55,2663.36 616.74,265.81 1267.34,398.61 1919.22,398.61 607.04,0 1215,-115.7 1796.15,-347.2 1899.79,-756.09 3059.17,-2585.5 3059.17,-4516.32 0,-596.38 -110.66,-1202.47 -344.51,-1789.59 -325.53,-817.69 -865.35,-1530.81 -1560.78,-2061.38l261.12 -342.63c757.98,578.22 1345.91,1354.35 1700.13,2244.75 254.69,638.89 375.06,1299.2 375.06,1948.85 0,2101.66 -1262.18,4093.13 -3330.47,4916.79 -633.02,251.87 -1295.09,377.87 -1956.22,377.87z"/>
  <path class="fil26" d="M119501.68 84223.67c769.34,820.97 1901.67,1530.22 2699.09,1972.97 -1190.87,1470.98 -2800.96,2944.29 -4933.3,4386.58l-610.07 1369.22 -1955.53 -2343.35c0,0 3508.24,-1745.57 4799.81,-5385.42z"/>
  <path class="fil20" d="M122200.77 86196.64c-797.42,-442.75 -1929.75,-1152 -2699.09,-1972.97 655.76,-1850.26 738.89,-4189.97 -502.35,-7037.54 -62.05,-142.62 -127.62,-286.65 -196.71,-431.5 -49.18,241.22 -110.07,480.1 -183.85,715.35 -129.97,412.06 -252.93,820.03 -366.51,1222.38 -701.41,2463.25 -1119.45,4724.63 -1367.69,6595.72l-478.93 -3859.29 -2243.59 -5904.39c-81.96,-351.87 -952,-601.05 -1312.65,-601.05l-6057.44 0c-166.28,0 -307.96,120.02 -334.9,283.85l-1025.76 6221.25c-137.01,-507.03 -283.38,-1010.79 -434.44,-1506.34 -250.58,-820.85 -516.39,-1620.98 -783.38,-2382.22 -927.41,-2640.66 -1878.24,-4816.32 -2327.89,-5807.67 -80.8,-178.23 -193.21,-339 -327.86,-476.01 629.97,-790.4 1181.5,-1637.24 1644.03,-2509.97 645.21,-1219.21 3032.82,-2240.19 3209.64,-3616.78 727.17,126.47 1455.52,238.53 2179.18,340.87 654.58,92.05 1305.63,176.35 1947.31,255.62 2909.87,358.32 5649.95,614.3 7812.74,1065.35 911.01,189.82 1766.99,571.32 2374.73,1275.19 401.64,463.48 881.73,1061.26 1374.72,1770.98 1220.14,1752.59 2522.27,4188.09 2908.68,6975 286.89,2059.05 76.11,4309.42 -1036.3,6618.46 -441.46,915.46 -1023.43,1840.05 -1771.69,2765.71z"/>
  <path class="fil27" d="M113823.65 61000.73l504.68 5158.48c0,0 -2954.36,1021.91 -5065.61,-467.09l1536.31 -4836.35 3024.62 144.96z"/>
  <path class="fil28" d="M119117.6 76142.57c874.72,-2518.89 692.05,-5439.17 632.33,-6123.95 -7.02,-82.44 -79.63,-141.69 -161.6,-131.97 -79.61,8.78 -137,77.75 -129.97,156.91 57.38,662.19 240.05,3534.7 -618.27,6003.57 -25.77,75.53 11.71,157.37 86.65,184.78l1.17 0c76.11,28.22 162.76,-12.06 189.69,-89.34z"/>
  <path class="fil20" d="M89998.25 71499.77c4979.78,2495.24 9026.66,-2628.12 11680.08,-4719.59 3503.54,-2761.51 6230.75,-1418.28 6230.75,-1418.28l-3736.58 7132.03c-6641.75,8037.55 -11710.89,4556.6 -14909.5,2388.2 -55.51,-1377.41 312.52,-2530.36 735.25,-3382.36z"/>
  <path class="fil29" d="M86010.74 70234.78l0 0c2532.21,859.38 2237.37,1002.47 3987.51,1264.99 -422.73,852 -790.76,2004.95 -735.25,3382.36 -2296.05,-1085.26 -3735.65,-2388.2 -3735.65,-2388.2 -684.31,-326.93 -447.3,-1400.71 -210.65,-2085.49 100.94,-291.69 467.56,-383.39 694.04,-173.66z"/>
  <path class="fil30" d="M109695.97 56429.73c0,0 -2194.4,4130.72 -1913.37,5799 281.04,1668.64 3001.21,1548.73 5375.94,193.45l1659.27 -4459.77 -5121.84 -1532.68z"/>
  <path class="fil31" d="M113053.14 60232.1c-96.01,-43.09 -132.31,-161.12 -73.76,-249.06 175.64,-268.61 504.68,-816.86 610.08,-1296.49 0,0 394.6,-252.36 -1003.53,-587.14 -1399.32,-334.78 -3484.81,-854.22 -3922.75,-2044.62 -427.41,-1160.91 1864.19,-2667.13 3656.94,-341.82 67.91,88.53 -968.39,-1321.43 -900.48,-1410.31 293.92,-381.97 1066.76,-1175.65 2138.2,-694.5 1002.35,450.01 1115.93,1185.26 1101.88,1555.75 -3.51,108.78 93.68,193.44 201.41,173.19 507.02,-96.84 1723.66,-179.75 2291.59,1069.09 468.39,1028.35 163.93,1610.32 -112.42,1895.1 -90.16,92.16 -51.52,244.03 72.61,281.98 332.55,101.86 221.31,-60.67 177.99,720.03 -59.72,1079.74 -724.83,1429.87 -1067.94,1380.69 -56.2,-7.85 -112.4,11.11 -151.05,53.74 -295.08,326 -1622.97,1710.44 -3059.74,1877.54 -124.13,14.4 -220.15,-108.32 -180.34,-226.82l621.78 -1807.63c29.29,-84.31 -10.53,-176.46 -92.5,-212.06l-307.97 -136.66z"/>
  <path class="fil32" d="M112802.56 60488.67c0,0 1563.25,-1071.91 1676.83,-169.44 114.75,902.82 -1406.34,1307.5 -2159.27,971.32l482.44 -801.88z"/>
  <path class="fil10" d="M87457.24 121221.45c-41.69,-2633.17 1192.75,-4787.63 2757.28,-4812.58 1564.54,-24.59 2866.54,2089.6 2908.7,4722.76 40.98,2632.81 -1193.22,4787.64 -2757.76,4812.23 -1564.53,25.05 -2866.54,-2089.6 -2908.22,-4722.41zm-2835.97 205.15l32.31 2038.31c55.62,3497.11 2011.85,6301.7 4370.07,6264.23l2803.18 -44.5c2358.46,-37 4224.99,-2902.72 4169.95,-6399.95l-32.78 -2037.71c-2.35,-135.25 -7.04,-270.03 -15.23,-404.69l-3566.31 -60379.15 -6107.79 96.84 -1651.19 60461.94c-3.62,134.77 -4.56,269.55 -2.21,404.68z"/>
  <path class="fil10" d="M82868.2 39960.48l187.01 11825.65c13.47,842.27 417.21,1630.34 1092.4,2133.16l3461.04 2579.42c988.05,736.3 2348.02,714.98 3311.96,-52.24l3378.26 -2687.84c658.08,-524.6 1036.3,-1324.73 1023.43,-2167l-187.36 -11825.65c-28.1,-1783.49 2065.59,-2799.32 3421.58,-1639.93 3244.77,2772.61 5343.14,6950.41 5416.91,11655.6 134.67,8504.41 -6404.04,14459.28 -14583.5,14588.9 -8180.29,129.75 -14904.36,-5615.5 -15039.03,-14119.81 -74.59,-4704.83 1890.07,-8947.04 5044.66,-11821.41 1318.64,-1201.08 3444.42,-252.34 3472.64,1531.15z"/>
  <path class="fil33" d="M83982.73 39942.92l187.47 11825.65c13,841.68 416.76,1629.75 1091.82,2133.03l3461.16 2579.53c988.06,736.2 2347.91,714.88 3311.97,-52.34l3377.32 -2687.72c659.26,-524.6 1037.47,-1324.73 1024.59,-2167l-188.53 -11825.65c-28.1,-1783.51 2066.77,-2799.44 3422.76,-1640.41 3244.76,2772.97 5341.96,6950.88 5416.91,11655.61 134.66,8504.31 -6404.05,14459.75 -14583.86,14589.37 -8180.17,129.63 -14904.25,-5615.52 -15038.91,-14119.81 -74.59,-4705.31 1890.08,-8947.51 5044.67,-11821.43 1318.62,-1201.64 3444.29,-252.34 3472.63,1531.17z"/>
  <path class="fil33" d="M88346.24 121207.17c-41.69,-2632.83 1192.75,-4787.65 2757.28,-4812.23 1564.54,-24.95 2866.31,2089.6 2908.46,4722.41 40.98,2633.17 -1193.22,4787.63 -2757.52,4812.57 -1564.53,25.07 -2866.54,-2089.59 -2908.22,-4722.75zm-2835.98 205.61l32.32 2037.74c55.62,3497.09 2011.85,6302.15 4370.07,6264.69l2803.06 -44.5c2358.34,-37.48 4224.87,-2902.6 4169.84,-6399.94l-32.79 -2038.19c-2.35,-134.78 -7.02,-269.92 -15.23,-404.23l-3565.6 -60379.5 -6108.26 96.73 -1651.19 60461.93c-3.62,134.78 -4.56,270.03 -2.22,405.27z"/>
  <path class="fil34" d="M85091.64 72310.09l278.8 587.59c43.92,93.1 133.26,158.79 235.61,169.45 875.18,93.08 1682.69,-21.79 2441.47,-287.12 269.57,-93.91 394.15,-407.85 256.56,-657.98 -317.56,-576.35 -698.24,-1133.37 -1158.45,-1665.46 -150.11,-173.66 -346.83,-300.95 -568.61,-362.07l-613.48 -168.5c-256.56,-70.85 -531.15,45.78 -651.99,282.9 -280.57,550.48 -363.94,1176 -288.88,1862.19 8.78,82.92 33.26,163.48 68.97,239z"/>
  <path class="fil35" d="M109502.76 128668.36c-1.17,-42.28 2.35,-84.78 12.89,-127.41 633.49,-2510.56 3776.38,-4074.16 3776.38,-4074.16l1245.91 97.31c715.46,2213.13 622.96,3570.29 508.2,4174.52 -3.51,17.2 -8.2,33.37 -12.88,49.53 -1026.94,91.68 -3141.71,151.87 -5530.5,-119.79z"/>
  <path class="fil10" d="M115033.26 128788.15c-55.04,201.99 -203.75,358.91 -394.62,399.19 -1461.37,307.37 -3784.58,60.17 -4759.99,-67.57 -215.46,-27.75 -372.37,-226.93 -375.89,-451.41 2388.79,271.66 4503.56,211.47 5530.5,119.79z"/>
  <path class="fil10" d="M103644.39 128762.74c1374.72,-38.4 2086.67,-200.47 2454.36,-350.94 1.17,137 1.17,276 -3.52,420.37 -4.68,153.76 -119.44,276.94 -259.95,276.01l-7552.77 -48.6c-240.04,-1.41 -381.73,-281.04 -277.51,-502 990.64,81.51 3512.91,264.88 5639.39,205.16z"/>
  <path class="fil36" d="M98005 128557.58c9.37,-19.44 17.56,-38.87 30.45,-56.91 666.28,-932.09 2365.36,-2788.31 5722.52,-3593.01l1610.09 -51.04c0,0 717.81,1246.5 730.69,3555.18 -367.69,150.47 -1079.64,312.54 -2454.36,350.94 -2126.48,59.72 -4648.75,-123.65 -5639.39,-205.16z"/>
  <path class="fil37" d="M106959.41 89121.02c0,0 -4338.45,16191.96 -4268.19,36094.96 1.17,363 693.21,300 1024.6,375.06 488.3,110.19 1206.1,240.76 1799.78,223.19 318.51,-9.72 583.15,-261.59 637.01,-596.84 544.51,-3422.17 3669.82,-22700.57 5450.87,-25830.22 0,0 682.69,17054.96 307.97,25963.12 -9.36,221.31 629.99,528.7 836.08,554.22 312.65,38.42 810.31,67.57 1444.97,-4.67 242.4,-27.29 898.14,287.58 932.09,30.08 388.77,-2896.16 2159.27,-20645.28 2064.43,-33063.54 -4.69,-700.47 -1728.36,-3745.36 -1728.36,-3745.36l-8501.25 0z"/>
  <path class="fil38" d="M111745.18 98326.38c65.57,0 125.29,-43.45 141.68,-109.72 323.19,-1242.28 2734.22,-2607.75 2758.81,-2621.1 70.26,-39.94 96.01,-128.81 56.2,-199.66 -39.8,-70.37 -128.81,-95.78 -199.06,-55.96 -104.22,58.31 -2545.69,1440.41 -2899.33,2803.07 -19.9,78.22 26.93,158.43 105.39,178.8 11.71,3.16 24.59,4.57 36.31,4.57z"/>
  <path class="fil39" d="M117189.02 92866.38l-7576.19 -294.86 -3434.45 -133.83 -747.08 -11008.9 0 -0.34 1025.76 -6221.25c26.94,-163.83 168.62,-283.85 334.9,-283.85l6057.44 0c360.65,0 1230.69,249.18 1312.65,601.05l2243.59 5904.39 478.93 3859.29 0 0 304.45 7578.3zm-9460.28 -14849.09c-163.93,0 -296.26,132.9 -296.26,296.85l0 6223.01c0,160.18 127.64,291.68 286.89,296.36l5286.94 162.42c2.34,0 5.86,0 9.36,0 162.78,0 296.26,-132.32 296.26,-296.26l0 -6385.53c0,-163.95 -133.48,-296.85 -297.43,-296.85l-5285.76 0z"/>
  <path class="fil40" d="M106656.13 76099.01l-206.09 -10974.58c-2.35,-94.04 81.97,-166.28 174.47,-151.41l1409.86 226.82c163.93,26.46 281.03,170.37 274,335.25l-228.34 10551.85c-1.17,85.72 -71.43,153.75 -156.91,153.75l-1122.95 0c-78.47,0 -142.87,-63 -144.04,-141.68z"/>
  <path class="fil41" d="M112740.5 76297.13c-140.51,-31.03 -228.35,-169.91 -196.73,-309.71l2138.19 -9539.21c42.16,-153.74 189.71,-255.15 347.79,-239.82l1430.92 136.07c207.27,19.91 339.59,229.16 270.5,425.53l-2919.23 9549.38c-35.13,114.42 -152.22,182.44 -269.32,156.46l-802.12 -178.7z"/>
  <path class="fil42" d="M107843.49 75580.38c0,206.09 -167.45,373.19 -373.54,373.19 -206.09,0 -372.36,-167.1 -372.36,-373.19 0,-206.44 166.27,-373.66 372.36,-373.66 206.09,0 373.54,167.22 373.54,373.66z"/>
  <path class="fil43" d="M113568.38 75656.85c0,205.97 -167.45,373.18 -373.54,373.18 -206.1,0 -373.54,-167.21 -373.54,-373.18 0,-206.56 167.44,-373.66 373.54,-373.66 206.09,0 373.54,167.1 373.54,373.66z"/>
  <g style="clip-path:url(#id0)">
   <image x="107400.87" y="77975.02" width="5939.16" height="7063.3" xlink:href="ourmission_Images\ourmission_ImgID1.png"/>
  </g>
 </g>
</svg>
